<?xml version="1.0" encoding="UTF-8"?>
<svg version="1.1" xmlns="http://www.w3.org/2000/svg" width="500" height="500">
<path d="M0 0 C1.27985023 -0.01058945 1.27985023 -0.01058945 2.58555603 -0.02139282 C62.99177902 -0.40748463 118.67043372 15.38994774 166.6796875 53.203125 C167.86014648 54.12762451 167.86014648 54.12762451 169.06445312 55.07080078 C176.51575114 61.02406066 183.33195187 67.45619352 190.0546875 74.203125 C190.87490891 75.02366364 190.87490891 75.02366364 191.71170044 75.86077881 C200.55693625 84.74009252 208.56118423 93.86383478 215.6796875 104.203125 C216.53587667 105.4027591 217.39263889 106.60198444 218.25 107.80078125 C230.05097487 124.60558962 239.20925862 143.12105124 246.6796875 162.203125 C246.96005859 162.90163574 247.24042969 163.60014648 247.52929688 164.31982422 C262.93045371 203.34559508 266.10704148 251.26785726 258.6796875 292.203125 C258.51871582 293.13866211 258.35774414 294.07419922 258.19189453 295.03808594 C251.51279952 333.23917304 235.92944805 369.20865955 212.6796875 400.203125 C212.23689453 400.80286133 211.79410156 401.40259766 211.33789062 402.02050781 C173.94188551 452.49105607 116.35586408 486.4847088 54.8046875 497.515625 C53.9271582 497.67506592 53.04962891 497.83450684 52.14550781 497.9987793 C-11.8454499 508.70527674 -79.92799832 492.88610885 -132.71240234 455.50927734 C-141.35796542 449.22143099 -149.49319766 442.48549558 -157.3203125 435.203125 C-158.71192071 433.9899281 -160.10758438 432.78136286 -161.5078125 431.578125 C-167.97842366 425.92608513 -173.80070778 419.78056668 -179.3203125 413.203125 C-179.73909668 412.70876953 -180.15788086 412.21441406 -180.58935547 411.70507812 C-199.74670849 388.95698933 -214.09860536 363.0837124 -224.3203125 335.203125 C-224.72540039 334.14109863 -224.72540039 334.14109863 -225.13867188 333.05761719 C-235.53271817 305.71229293 -238.43882812 277.00933665 -238.5703125 248.015625 C-238.57585144 247.21818878 -238.58139038 246.42075256 -238.58709717 245.59915161 C-238.6697183 229.31125528 -237.18020475 213.51074178 -233.6953125 197.578125 C-233.43733887 196.39299316 -233.17936523 195.20786133 -232.91357422 193.98681641 C-223.78244338 153.62129229 -204.49980793 114.97738011 -176.40234375 84.46875 C-174.4959081 82.39420464 -172.6526564 80.28046569 -170.8203125 78.140625 C-164.47335745 70.8911213 -157.64602538 64.45590407 -150.1171875 58.4453125 C-148.31328428 56.99916662 -146.52998926 55.52674407 -144.7734375 54.0234375 C-106.0007334 21.00789249 -50.83709662 0.28287604 0 0 Z M112.44042969 139.29492188 C109.75771089 139.3048056 107.07499199 139.31465998 104.39227295 139.32447815 C98.65877951 139.34551895 92.9252871 139.36682512 87.19179535 139.38832092 C78.90252398 139.41939837 70.61325112 139.450061 62.32397786 139.48062819 C48.86930447 139.53025412 35.41463233 139.5802072 21.95996094 139.63037109 C8.903972 139.67904785 -4.15201751 139.72756736 -17.20800781 139.77587891 C-18.01521614 139.7788659 -18.82242447 139.7818529 -19.65409365 139.78493041 C-23.70434834 139.79991702 -27.75460303 139.81490058 -31.80485773 139.82988262 C-65.31001108 139.95382336 -98.81516244 140.07829717 -132.3203125 140.203125 C-129.23666354 143.32041254 -126.19915734 146.20134019 -122.6953125 148.83984375 C-121.39787109 149.82186768 -121.39787109 149.82186768 -120.07421875 150.82373047 C-119.16542969 151.50580566 -118.25664063 152.18788086 -117.3203125 152.890625 C-115.42431504 154.32400168 -113.52848126 155.75759489 -111.6328125 157.19140625 C-110.71757813 157.88186035 -109.80234375 158.57231445 -108.859375 159.28369141 C-105.6660864 161.69769477 -102.48950415 164.13261887 -99.3203125 166.578125 C-97.81984375 167.73441406 -97.81984375 167.73441406 -96.2890625 168.9140625 C-95.309375 169.66945312 -94.3296875 170.42484375 -93.3203125 171.203125 C-91.15409092 172.87037048 -88.98719482 174.53673839 -86.8203125 176.203125 C-85.73696708 177.03644262 -84.65363372 177.86977592 -83.5703125 178.703125 C-83.0340625 179.115625 -82.4978125 179.528125 -81.9453125 179.953125 C-51.0703125 203.703125 -51.0703125 203.703125 -49.44604492 204.95263672 C-48.36036694 205.78772346 -47.27459185 206.62268398 -46.1887207 207.45751953 C-43.51545085 209.51301862 -40.84419623 211.57100615 -38.17578125 213.6328125 C-32.36343165 218.121433 -26.51798534 222.56035406 -20.6328125 226.953125 C-14.60657653 231.45567152 -8.63484421 236.02430147 -2.6953125 240.640625 C-1.94934814 241.21973633 -1.20338379 241.79884766 -0.43481445 242.39550781 C3.66731863 245.59313474 7.70462055 248.84877039 11.6796875 252.203125 C15.90491775 250.78710189 18.64995382 248.74962488 21.9921875 245.828125 C26.63323364 241.8475859 31.39285014 238.09378417 36.3046875 234.453125 C42.13196442 230.12715301 47.89763545 225.73315729 53.6171875 221.265625 C61.63030118 215.00896377 69.69563501 208.82375956 77.77783203 202.65673828 C80.50088551 200.5754725 83.21530026 198.4831835 85.9296875 196.390625 C94.22966167 190.00047075 102.56899947 183.66198677 110.90380859 177.31738281 C113.64935219 175.22622999 116.39329748 173.13299864 119.13671875 171.0390625 C127.21254531 164.87674109 135.29514127 158.72530821 143.4296875 152.640625 C147.6926148 149.44913146 151.95432209 146.25682145 156.1796875 143.015625 C156.870625 142.48582031 157.5615625 141.95601562 158.2734375 141.41015625 C158.96953125 140.81267578 158.96953125 140.81267578 159.6796875 140.203125 C159.6796875 139.873125 159.6796875 139.543125 159.6796875 139.203125 C143.93305549 139.18825448 128.18693648 139.23530373 112.44042969 139.29492188 Z M-136.3203125 172.203125 C-136.3203125 222.033125 -136.3203125 271.863125 -136.3203125 323.203125 C-130.76825475 318.48240292 -130.76825475 318.48240292 -125.51734924 313.52041626 C-124.51845924 312.52358826 -124.51845924 312.52358826 -123.49938965 311.50662231 C-122.79519897 310.79883636 -122.0910083 310.09105042 -121.36547852 309.36181641 C-120.60367783 308.60016174 -119.84187714 307.83850708 -119.05699158 307.05377197 C-116.56035393 304.55644228 -114.06726888 302.05559813 -111.57421875 299.5546875 C-109.83566296 297.81426502 -108.09688506 296.07406439 -106.3578949 294.33407593 C-101.79698613 289.76936179 -97.23908936 285.20165173 -92.68182373 280.63330078 C-88.02473196 275.96595222 -83.36478347 271.30145776 -78.70507812 266.63671875 C-69.57403267 257.49497091 -60.44607077 248.35015063 -51.3203125 239.203125 C-52.41796051 235.91018097 -53.00338783 235.41275845 -55.6796875 233.41796875 C-56.37642578 232.89267578 -57.07316406 232.36738281 -57.79101562 231.82617188 C-58.91926758 230.99182617 -58.91926758 230.99182617 -60.0703125 230.140625 C-61.63817262 228.96244154 -63.20587969 227.7840544 -64.7734375 226.60546875 C-65.55009766 226.02522949 -66.32675781 225.44499023 -67.12695312 224.84716797 C-70.04596631 222.65920773 -72.93386626 220.43389373 -75.8203125 218.203125 C-79.99403927 214.98857767 -84.17583462 211.78504495 -88.36401367 208.58935547 C-95.1009427 203.44746977 -101.81801809 198.2812192 -108.5078125 193.078125 C-109.25466309 192.49732178 -110.00151367 191.91651855 -110.77099609 191.31811523 C-114.32181118 188.55252421 -117.864303 185.77723659 -121.390625 182.98046875 C-122.02460205 182.47854004 -122.6585791 181.97661133 -123.31176758 181.45947266 C-124.48300475 180.53083656 -125.65228113 179.59971918 -126.8190918 178.66552734 C-129.90817938 176.21616908 -132.90791133 174.2505657 -136.3203125 172.203125 Z M154.5546875 177.453125 C149.76881741 181.53709694 144.85780084 185.39299577 139.8046875 189.140625 C134.72966914 192.90886971 129.69865821 196.71755524 124.7421875 200.640625 C117.52471347 206.3488315 110.21580443 211.93339517 102.89697266 217.51074219 C100.61721882 219.25080535 98.34131833 220.99580004 96.06640625 222.7421875 C95.31077393 223.32178223 94.5551416 223.90137695 93.77661133 224.49853516 C92.34222472 225.5989513 90.9084251 226.70013319 89.4753418 227.80224609 C85.26976802 231.02540196 81.00735417 234.1456566 76.6796875 237.203125 C80.48871534 242.60778868 84.50405638 247.18849272 89.4296875 251.5859375 C97.64280909 259.08956406 105.52590186 266.89712697 113.38037109 274.7734375 C115.70165065 277.10013945 118.02831413 279.42136328 120.35546875 281.7421875 C121.85969617 283.24707488 123.36361381 284.75227197 124.8671875 286.2578125 C125.54958496 286.93818573 126.23198242 287.61855896 126.93505859 288.31954956 C130.80258205 292.2057772 134.47298301 296.20365374 138.05621338 300.35281372 C140.3245001 302.93803294 142.70988396 305.36301363 145.140625 307.796875 C145.85468002 308.51236511 145.85468002 308.51236511 146.5831604 309.24230957 C147.57163031 310.23145062 148.56132617 311.21936807 149.55224609 312.20605469 C151.07639777 313.72475766 152.59501794 315.24885012 154.11328125 316.7734375 C155.08040796 317.73990487 156.04784403 318.70606279 157.015625 319.671875 C158.32345947 320.97801758 158.32345947 320.97801758 159.65771484 322.31054688 C161.33978152 324.31701839 161.33978152 324.31701839 162.6796875 324.203125 C162.70311153 306.43468141 162.72071318 288.66624186 162.73149967 270.89778614 C162.73664251 262.64645177 162.74364661 254.39512702 162.75512695 246.14379883 C162.76513554 238.9468069 162.77155555 231.74982194 162.77377599 224.55282325 C162.77507267 220.74675773 162.7780918 216.94071217 162.78541756 213.13465309 C162.79227549 209.54206942 162.79428487 205.94951365 162.79279518 202.35692406 C162.79319548 200.43069475 162.7985392 198.50446837 162.80410767 196.57824707 C162.79497193 188.74269785 162.39382671 181.00598173 161.6796875 173.203125 C158.46095182 173.203125 156.94321223 175.38350412 154.5546875 177.453125 Z M-29.3203125 255.203125 C-31.23016677 256.32977641 -31.23016677 256.32977641 -33.0078125 258.015625 C-33.63042969 258.55832031 -34.25304687 259.10101563 -34.89453125 259.66015625 C-36.54653455 261.09779762 -36.54653455 261.09779762 -36.3203125 263.203125 C-36.9803125 263.203125 -37.6403125 263.203125 -38.3203125 263.203125 C-39.7526403 264.61960171 -39.7526403 264.61960171 -41.2578125 266.515625 C-44.40358162 270.2188722 -47.70107167 273.70550592 -51.1328125 277.140625 C-51.61290771 277.6250708 -52.09300293 278.1095166 -52.58764648 278.60864258 C-56.0711165 282.078527 -56.0711165 282.078527 -58.3203125 283.203125 C-58.3203125 283.863125 -58.3203125 284.523125 -58.3203125 285.203125 C-58.9803125 285.203125 -59.6403125 285.203125 -60.3203125 285.203125 C-60.8565625 285.88375 -61.3928125 286.564375 -61.9453125 287.265625 C-63.84588887 289.61633787 -65.48415441 291.28367891 -67.7578125 293.203125 C-71.77916365 296.64454695 -75.56143261 300.29301097 -79.3203125 304.015625 C-80.2028772 304.87897461 -80.2028772 304.87897461 -81.10327148 305.75976562 C-82.54897645 307.20184406 -83.93983425 308.69848788 -85.3203125 310.203125 C-85.3203125 310.863125 -85.3203125 311.523125 -85.3203125 312.203125 C-86.3103125 312.533125 -87.3003125 312.863125 -88.3203125 313.203125 C-88.3203125 313.863125 -88.3203125 314.523125 -88.3203125 315.203125 C-88.9803125 315.203125 -89.6403125 315.203125 -90.3203125 315.203125 C-90.3203125 315.863125 -90.3203125 316.523125 -90.3203125 317.203125 C-90.89521423 317.45303696 -91.47011597 317.70294891 -92.06243896 317.96043396 C-94.64002588 319.37908922 -96.36824201 321.00391455 -98.44628906 323.08618164 C-99.24681702 323.88363297 -100.04734497 324.68108429 -100.87213135 325.50270081 C-101.72643738 326.36419235 -102.58074341 327.2256839 -103.4609375 328.11328125 C-104.34311951 328.99592148 -105.22530151 329.87856171 -106.13421631 330.78794861 C-107.99586667 332.65261852 -109.85550112 334.51905586 -111.71191406 336.38891602 C-114.09660746 338.79066044 -116.48789296 341.18570729 -118.88150406 343.57856083 C-121.16078345 345.85817656 -123.43580519 348.14202765 -125.7109375 350.42578125 C-126.57334045 351.28929703 -127.43574341 352.15281281 -128.32427979 353.04249573 C-129.1121991 353.83679489 -129.90011841 354.63109406 -130.71191406 355.44946289 C-131.41044495 356.15180557 -132.10897583 356.85414825 -132.82867432 357.57777405 C-134.4330044 358.95824025 -134.4330044 358.95824025 -134.3203125 360.203125 C-37.3003125 360.203125 59.7196875 360.203125 159.6796875 360.203125 C155.08967586 354.79237799 155.08967586 354.79237799 150.27636719 349.65454102 C149.6826532 349.05444717 149.08893921 348.45435333 148.47723389 347.83607483 C147.85826233 347.21599045 147.23929077 346.59590607 146.6015625 345.95703125 C145.94891418 345.30105453 145.29626587 344.64507782 144.62384033 343.96922302 C143.25704351 342.59740136 141.88892369 341.22689667 140.51953125 339.85766602 C138.41637991 337.75230341 136.32138377 335.63903791 134.2265625 333.52539062 C132.89371797 332.18961626 131.56040167 330.85431242 130.2265625 329.51953125 C129.59949402 328.88527725 128.97242554 328.25102325 128.32635498 327.59754944 C125.5273343 324.33609202 125.5273343 324.33609202 121.6796875 323.203125 C121.6796875 322.543125 121.6796875 321.883125 121.6796875 321.203125 C121.0196875 321.203125 120.3596875 321.203125 119.6796875 321.203125 C119.6796875 320.543125 119.6796875 319.883125 119.6796875 319.203125 C118.06169248 317.56636992 118.06169248 317.56636992 115.9921875 315.890625 C112.71089844 313.14076882 109.69860948 310.23924656 106.6796875 307.203125 C105.61020778 306.13759205 104.54001751 305.07277196 103.46923828 304.00854492 C100.26693438 300.82413427 97.06775981 297.63659936 93.86962891 294.44799805 C92.49748347 293.08088176 91.1244419 291.71466429 89.75048828 290.34936523 C87.74790056 288.35902649 85.74866623 286.36536947 83.75 284.37109375 C83.14560089 283.77185593 82.54120178 283.1726181 81.91848755 282.55522156 C78.19804367 278.83525889 74.67722812 274.99147992 71.24694824 271.00210571 C68.94549861 268.36038606 66.52355941 265.87728417 64.0546875 263.390625 C63.15492188 262.47667969 62.25515625 261.56273437 61.328125 260.62109375 C58.88955115 258.39472618 56.57116731 256.77412757 53.6796875 255.203125 C52.88046875 255.82058594 52.08125 256.43804687 51.2578125 257.07421875 C44.78990884 262.06419848 38.29434983 267.01135518 31.7421875 271.890625 C29.53468789 273.55751246 27.35072306 275.24015409 25.1796875 276.953125 C24.59574219 277.41138672 24.01179687 277.86964844 23.41015625 278.34179688 C22.28339334 279.22820066 21.16075505 280.11988101 20.04296875 281.01757812 C15.11046959 284.88778843 15.11046959 284.88778843 11.6796875 285.203125 C9.56762695 284.05419922 9.56762695 284.05419922 7.29296875 282.2578125 C6.44460449 281.5985376 5.59624023 280.9392627 4.72216797 280.26000977 C3.82127441 279.53998779 2.92038086 278.81996582 1.9921875 278.078125 C1.0655127 277.35488037 0.13883789 276.63163574 -0.81591797 275.88647461 C-2.72504763 274.39620296 -4.63030237 272.9009546 -6.53173828 271.40087891 C-10.64603273 268.15828753 -14.79246383 264.95858057 -18.9453125 261.765625 C-19.64873779 261.21696777 -20.35216309 260.66831055 -21.0769043 260.10302734 C-21.72699463 259.60109863 -22.37708496 259.09916992 -23.046875 258.58203125 C-23.60971191 258.1444751 -24.17254883 257.70691895 -24.75244141 257.25610352 C-26.45922208 256.00882079 -26.45922208 256.00882079 -29.3203125 255.203125 Z " fill="#FBFBFA" transform="translate(238.3203125,-0.203125)"/>
<path d="M0 0 C97.68 0 195.36 0 296 0 C296 3 296 3 294.5390625 4.60546875 C293.90742188 5.12753906 293.27578125 5.64960938 292.625 6.1875 C291.99851562 6.71730469 291.37203125 7.24710938 290.7265625 7.79296875 C289 9 289 9 287 9 C287 9.66 287 10.32 287 11 C285.515 11.495 285.515 11.495 284 12 C283.484375 12.515625 282.96875 13.03125 282.4375 13.5625 C281.7259375 14.2740625 281.7259375 14.2740625 281 15 C280.34 15 279.68 15 279 15 C279 15.66 279 16.32 279 17 C277.02 17.495 277.02 17.495 275 18 C275 18.66 275 19.32 275 20 C274.360625 20.28875 273.72125 20.5775 273.0625 20.875 C270.84793921 21.82823451 270.84793921 21.82823451 270 24 C268.24312198 24.99024034 266.48385766 25.97805252 264.69140625 26.90234375 C262.68233132 28.04751017 262.68233132 28.04751017 261 31 C260.01 31.33 259.02 31.66 258 32 C257.67 32.66 257.34 33.32 257 34 C256.01 34.33 255.02 34.66 254 35 C253.484375 35.515625 252.96875 36.03125 252.4375 36.5625 C251.963125 37.036875 251.48875 37.51125 251 38 C250.34 38 249.68 38 249 38 C249 38.66 249 39.32 249 40 C248.0409375 40.433125 248.0409375 40.433125 247.0625 40.875 C244.84793921 41.82823451 244.84793921 41.82823451 244 44 C243.01 44 242.02 44 241 44 C241 44.66 241 45.32 241 46 C239.35 46.66 237.7 47.32 236 48 C236 48.66 236 49.32 236 50 C234.68 50.33 233.36 50.66 232 51 C232 51.66 232 52.32 232 53 C230.35546875 54.18359375 230.35546875 54.18359375 228.1875 55.4375 C225.97616142 56.72241258 224.16268795 57.83498239 222.36328125 59.66015625 C221 61 221 61 219 61 C219 61.66 219 62.32 219 63 C217.68 63.33 216.36 63.66 215 64 C215 64.66 215 65.32 215 66 C214.401875 66.268125 213.80375 66.53625 213.1875 66.8125 C210.95672092 67.8893979 210.95672092 67.8893979 209.375 69.625 C208.92125 70.07875 208.4675 70.5325 208 71 C207.34 71 206.68 71 206 71 C206 71.66 206 72.32 206 73 C204.68 73.33 203.36 73.66 202 74 C202 74.66 202 75.32 202 76 C200.35546875 77.18359375 200.35546875 77.18359375 198.1875 78.4375 C195.97616142 79.72241258 194.16268795 80.83498239 192.36328125 82.66015625 C191 84 191 84 189 84 C189 84.66 189 85.32 189 86 C187.68 86.33 186.36 86.66 185 87 C185 87.66 185 88.32 185 89 C183.68 89.33 182.36 89.66 181 90 C181 90.66 181 91.32 181 92 C179.68 92.33 178.36 92.66 177 93 C177 93.66 177 94.32 177 95 C174.525 95.99 174.525 95.99 172 97 C172 97.66 172 98.32 172 99 C171.360625 99.28875 170.72125 99.5775 170.0625 99.875 C167.84793921 100.82823451 167.84793921 100.82823451 167 103 C166.01 103.33 165.02 103.66 164 104 C162.45833358 105.37485532 162.45833358 105.37485532 161 107 C158.87790925 109.29893164 158.08375495 109.97208168 155 111 C154.67 111.66 154.34 112.32 154 113 C151.61018328 114.62166134 150.40136115 115.04013612 147.5 114.75 C142.34913911 113.20474173 139.76716229 110.85685663 136 107 C132.50111006 103.88142418 129.11301094 101.51027991 125.015625 99.265625 C121.49447184 97.05466836 118.41357602 94.29393537 115.23046875 91.62890625 C111.55140422 88.58917363 107.71236002 85.77270428 103.875 82.9375 C99.52322891 79.71607873 95.29328685 76.49271178 91.3125 72.8125 C87.42489009 69.22222163 83.18136414 66.30003083 78.80053711 63.35913086 C75.42557301 61.06715919 72.36320102 58.64899307 69.375 55.875 C65.43162249 52.21537106 61.20622419 49.46507068 56.578125 46.73828125 C53.67295372 44.77949152 51.47319242 42.47695679 49 40 C46.92875478 38.47507554 44.82244921 36.99687905 42.6875 35.5625 C35.08449656 30.39228603 35.08449656 30.39228603 31.5 27.75 C30.64921875 27.12351563 30.64921875 27.12351563 29.78125 26.484375 C28 25 28 25 25.87890625 22.76953125 C22.02546554 19.06248991 17.77454908 16.05237988 13.4375 12.9375 C11.74633135 11.72073044 10.05744789 10.50077715 8.37109375 9.27734375 C7.62786865 8.74359131 6.88464355 8.20983887 6.11889648 7.65991211 C3.88202786 5.90758238 1.90052464 4.11333611 0 2 C0 1.34 0 0.68 0 0 Z M247.76074219 1.09179688 C245.07802339 1.1016806 242.39530449 1.11153498 239.71258545 1.12135315 C233.97909201 1.14239395 228.2455996 1.16370012 222.51210785 1.18519592 C214.22283648 1.21627337 205.93356362 1.246936 197.64429036 1.27750319 C184.18961697 1.32712912 170.73494483 1.3770822 157.28027344 1.42724609 C144.2242845 1.47592285 131.16829499 1.52444236 118.11230469 1.57275391 C117.30509636 1.5757409 116.49788803 1.5787279 115.66621885 1.58180541 C111.61596416 1.59679202 107.56570947 1.61177558 103.51545477 1.62675762 C70.01030142 1.75069836 36.50515006 1.87517217 3 2 C6.08364896 5.11728754 9.12115516 7.99821519 12.625 10.63671875 C13.92244141 11.61874268 13.92244141 11.61874268 15.24609375 12.62060547 C16.15488281 13.30268066 17.06367187 13.98475586 18 14.6875 C19.89599746 16.12087668 21.79183124 17.55446989 23.6875 18.98828125 C24.60273437 19.67873535 25.51796875 20.36918945 26.4609375 21.08056641 C29.6542261 23.49456977 32.83080835 25.92949387 36 28.375 C37.50046875 29.53128906 37.50046875 29.53128906 39.03125 30.7109375 C40.0109375 31.46632812 40.990625 32.22171875 42 33 C44.16622158 34.66724548 46.33311768 36.33361339 48.5 38 C49.58334542 38.83331762 50.66667878 39.66665092 51.75 40.5 C52.28625 40.9125 52.8225 41.325 53.375 41.75 C84.25 65.5 84.25 65.5 85.87426758 66.74951172 C86.95994556 67.58459846 88.04572065 68.41955898 89.1315918 69.25439453 C91.80486165 71.30989362 94.47611627 73.36788115 97.14453125 75.4296875 C102.95688085 79.918308 108.80232716 84.35722906 114.6875 88.75 C120.71373597 93.25254652 126.68546829 97.82117647 132.625 102.4375 C133.37096436 103.01661133 134.11692871 103.59572266 134.88549805 104.19238281 C138.98763113 107.39000974 143.02493305 110.64564539 147 114 C151.22523025 112.58397689 153.97026632 110.54649988 157.3125 107.625 C161.95354614 103.6444609 166.71316264 99.89065917 171.625 96.25 C177.45227692 91.92402801 183.21794795 87.53003229 188.9375 83.0625 C196.95061368 76.80583877 205.01594751 70.62063456 213.09814453 64.45361328 C215.82119801 62.3723475 218.53561276 60.2800585 221.25 58.1875 C229.54997417 51.79734575 237.88931197 45.45886177 246.22412109 39.11425781 C248.96966469 37.02310499 251.71360998 34.92987364 254.45703125 32.8359375 C262.53285781 26.67361609 270.61545377 20.52218321 278.75 14.4375 C283.0129273 11.24600646 287.27463459 8.05369645 291.5 4.8125 C292.1909375 4.28269531 292.881875 3.75289062 293.59375 3.20703125 C294.28984375 2.60955078 294.28984375 2.60955078 295 2 C295 1.67 295 1.34 295 1 C279.25336799 0.98512948 263.50724898 1.03217873 247.76074219 1.09179688 Z " fill="#737573" transform="translate(103,138)"/>
<path d="M0 0 C0.66 0.33 1.32 0.66 2 1 C-0.31 3.31 -2.62 5.62 -5 8 C92.02 8 189.04 8 289 8 C289.33 8.99 289.66 9.98 290 11 C270.65619374 11.75379378 251.35335226 12.14329093 231.99267578 12.11352539 C229.34788919 12.11324223 226.70310535 12.11336014 224.05831909 12.1139679 C218.43740476 12.1144846 212.81650231 12.11142895 207.19559097 12.10573006 C199.06935419 12.09749659 190.94312297 12.09498792 182.81688248 12.09374207 C169.62287285 12.09156982 156.42886951 12.08496011 143.23486328 12.07543945 C130.4412438 12.06621749 117.64762605 12.05916026 104.85400391 12.05493164 C104.0613708 12.05466892 103.26873769 12.05440619 102.45208539 12.05413551 C98.47447334 12.05283018 94.49686127 12.05156655 90.5192492 12.05032361 C57.67949489 12.04000808 24.8397483 12.0224405 -8 12 C-7.30845101 7.87741824 -6.53050343 6.05555773 -3.4375 3.1875 C-2.79683594 2.58292969 -2.15617187 1.97835938 -1.49609375 1.35546875 C-1.00238281 0.90816406 -0.50867188 0.46085937 0 0 Z " fill="#8D8956" transform="translate(110,351)"/>
<path d="M0 0 C0.99 0.495 0.99 0.495 2 1 C0.71034824 2.37562854 -0.62689293 3.70766393 -2 5 C-2.66 5 -3.32 5 -4 5 C-4 5.66 -4 6.32 -4 7 C-4.99 7.33 -5.98 7.66 -7 8 C-7.515625 8.515625 -8.03125 9.03125 -8.5625 9.5625 C-9.036875 10.036875 -9.51125 10.51125 -10 11 C-10.66 11 -11.32 11 -12 11 C-12 11.66 -12 12.32 -12 13 C-13.32 13.33 -14.64 13.66 -16 14 C-16 14.66 -16 15.32 -16 16 C-16.9590625 16.433125 -16.9590625 16.433125 -17.9375 16.875 C-20.15206079 17.82823451 -20.15206079 17.82823451 -21 20 C-22.75687802 20.99024034 -24.51614234 21.97805252 -26.30859375 22.90234375 C-28.31766868 24.04751017 -28.31766868 24.04751017 -30 27 C-31.485 27.495 -31.485 27.495 -33 28 C-33.33 28.66 -33.66 29.32 -34 30 C-35.485 30.495 -35.485 30.495 -37 31 C-37.515625 31.515625 -38.03125 32.03125 -38.5625 32.5625 C-39.036875 33.036875 -39.51125 33.51125 -40 34 C-40.66 34 -41.32 34 -42 34 C-42 34.66 -42 35.32 -42 36 C-42.9590625 36.433125 -42.9590625 36.433125 -43.9375 36.875 C-46.15206079 37.82823451 -46.15206079 37.82823451 -47 40 C-47.99 40 -48.98 40 -50 40 C-50 40.66 -50 41.32 -50 42 C-51.65 42.66 -53.3 43.32 -55 44 C-55 44.66 -55 45.32 -55 46 C-56.98 46.495 -56.98 46.495 -59 47 C-59 47.66 -59 48.32 -59 49 C-60.64453125 50.18359375 -60.64453125 50.18359375 -62.8125 51.4375 C-65.02383858 52.72241258 -66.83731205 53.83498239 -68.63671875 55.66015625 C-70 57 -70 57 -72 57 C-72 57.66 -72 58.32 -72 59 C-73.98 59.495 -73.98 59.495 -76 60 C-76 60.66 -76 61.32 -76 62 C-76.598125 62.268125 -77.19625 62.53625 -77.8125 62.8125 C-80.04327908 63.8893979 -80.04327908 63.8893979 -81.625 65.625 C-82.07875 66.07875 -82.5325 66.5325 -83 67 C-83.66 67 -84.32 67 -85 67 C-85 67.66 -85 68.32 -85 69 C-86.98 69.495 -86.98 69.495 -89 70 C-89 70.66 -89 71.32 -89 72 C-90.64453125 73.18359375 -90.64453125 73.18359375 -92.8125 74.4375 C-95.02383858 75.72241258 -96.83731205 76.83498239 -98.63671875 78.66015625 C-100 80 -100 80 -102 80 C-102 80.66 -102 81.32 -102 82 C-103.98 82.495 -103.98 82.495 -106 83 C-106 83.66 -106 84.32 -106 85 C-107.98 85.495 -107.98 85.495 -110 86 C-110 86.66 -110 87.32 -110 88 C-111.98 88.495 -111.98 88.495 -114 89 C-114 89.66 -114 90.32 -114 91 C-115.98 91.99 -115.98 91.99 -118 93 C-118 92.01 -118 91.02 -118 90 C-115.97265625 88.1953125 -115.97265625 88.1953125 -113.0625 86.125 C-111.95744862 85.32544007 -110.85333637 84.52458111 -109.75 83.72265625 C-109.14800781 83.28840332 -108.54601562 82.85415039 -107.92578125 82.40673828 C-104.42676753 79.85079038 -100.99880345 77.20180038 -97.5625 74.5625 C-96.10027582 73.44268822 -94.63803636 72.3228964 -93.17578125 71.203125 C-86.45881701 66.05248272 -79.74972507 60.89165306 -73.046875 55.72265625 C-63.65116066 48.48313789 -54.21382662 41.29859035 -44.77587891 34.11425781 C-42.03033531 32.02310499 -39.28639002 29.92987364 -36.54296875 27.8359375 C-27.74289034 21.12101182 -18.93512841 14.41841121 -10.05932617 7.80371094 C-6.65496319 5.26249707 -3.30091789 2.67574405 0 0 Z " fill="#9C9B78" transform="translate(394,142)"/>
<path d="M0 0 C0.99 0 1.98 0 3 0 C3 50.82 3 101.64 3 154 C-1.64115399 152.8397115 -3.64937912 150.73804645 -6.859375 147.43359375 C-7.40861633 146.88010757 -7.95785767 146.3266214 -8.52374268 145.75636292 C-10.27300464 143.99033441 -12.01153644 142.21415308 -13.75 140.4375 C-14.935505 139.23694559 -16.12169524 138.0370674 -17.30859375 136.83789062 C-20.21373293 133.89970905 -23.10929337 130.95237926 -26 128 C-25.01 128 -24.02 128 -23 128 C-15.08 135.92 -7.16 143.84 1 152 C1 102.5 1 53 1 2 C0.34 1.67 -0.32 1.34 -1 1 C-0.67 0.67 -0.34 0.34 0 0 Z " fill="#1F2021" transform="translate(399,171)"/>
<path d="M0 0 C2.98545481 2.19518736 5.46959541 4.46250099 7.8125 7.3125 C9.92169079 9.85312321 12.09937353 12.03477391 14.62158203 14.16333008 C19.36839153 18.26501654 23.80460699 22.64276879 28.2421875 27.07421875 C29.09177032 27.92047318 29.94135315 28.7667276 30.81668091 29.6386261 C32.5978438 31.41475722 34.377682 33.1922177 36.15625 34.97094727 C38.88261018 37.69510403 41.61689091 40.41114303 44.3515625 43.12695312 C46.08642624 44.85888557 47.82081809 46.59129086 49.5546875 48.32421875 C50.37234589 49.13469162 51.19000427 49.94516449 52.03244019 50.78019714 C52.78727692 51.5381105 53.54211365 52.29602386 54.31982422 53.0769043 C54.98408417 53.73973923 55.64834412 54.40257416 56.33273315 55.085495 C57.97699574 56.97358445 58.99804363 58.71653941 60 61 C56.0417454 59.39903614 53.36440403 56.65345763 50.40527344 53.67993164 C49.85848938 53.13825851 49.31170532 52.59658539 48.74835205 52.03849792 C46.94683386 50.25085361 45.15281498 48.45590236 43.359375 46.66015625 C42.10977854 45.41444661 40.85995849 44.1689612 39.60992432 42.9236908 C36.99401524 40.31523822 34.38200943 37.70294997 31.77246094 35.08813477 C28.4226257 31.73249162 25.06153446 28.3883795 21.69723129 25.04724979 C19.1150224 22.47974357 16.53974261 19.90537513 13.96643829 17.32894707 C12.72957103 16.0925943 11.49032839 14.85861329 10.24871063 13.62703133 C8.51762028 11.90822693 6.79627769 10.18021915 5.07714844 8.44946289 C4.55979126 7.93974945 4.04243408 7.43003601 3.50939941 6.90487671 C0 3.34258647 0 3.34258647 0 0 Z " fill="#BCBA84" transform="translate(314,237)"/>
<path d="M0 0 C0.66 0.33 1.32 0.66 2 1 C-0.0869635 4.13044524 -0.81466639 4.45559583 -4 6 C-5.02196992 6.97753644 -6.01979625 7.9805881 -7 9 C-7.7425 9.556875 -8.485 10.11375 -9.25 10.6875 C-11.45162517 12.53886662 -13.10088255 14.20529324 -14.9375 16.375 C-18.46442337 20.500102 -22.23084896 24.34833297 -26.0625 28.1875 C-26.65216553 28.78159668 -27.24183105 29.37569336 -27.84936523 29.98779297 C-30.52828828 32.65811173 -33.21194284 35.22185454 -36.16015625 37.59375 C-38.97368766 39.97770509 -41.12367458 42.40130333 -43.375 45.3125 C-44.06335937 46.19550781 -44.75171875 47.07851562 -45.4609375 47.98828125 C-45.96882813 48.65214844 -46.47671875 49.31601563 -47 50 C-47 40.72884599 -30.39927287 27.49395167 -24 21 C-16.39993699 13.51309932 -8.48537787 6.47156699 0 0 Z " fill="#8D8C6C" transform="translate(98,50)"/>
<path d="M0 0 C21.13881713 -0.5617599 41.62712651 1.09785871 62 7 C58.22044143 8.25985286 55.15576548 7.64024579 51.3125 7.0625 C50.61060547 6.96259766 49.90871094 6.86269531 49.18554688 6.75976562 C47.45613473 6.51270675 45.7279373 6.25717148 44 6 C44 5.34 44 4.68 44 4 C43.1028125 4.01160156 42.205625 4.02320313 41.28125 4.03515625 C31.81048798 4.10364317 22.44400891 3.69495992 13 3 C13 2.34 13 1.68 13 1 C8.71 1 4.42 1 0 1 C0 0.67 0 0.34 0 0 Z " fill="#6B6938" transform="translate(249,0)"/>
<path d="M0 0 C0 0.66 0 1.32 0 2 C-27.01031286 2.1984481 -53.99787819 1.62119419 -81 1 C-81 0.67 -81 0.34 -81 0 C-70.73430173 -0.15366806 -60.46854049 -0.30184982 -50.20266151 -0.4429636 C-45.43617024 -0.50865713 -40.66972188 -0.57626382 -35.90332031 -0.64819336 C-31.30631258 -0.71749701 -26.70926009 -0.78183979 -22.11213303 -0.84269524 C-20.35537556 -0.86683193 -18.59864202 -0.89277767 -16.84193802 -0.92053413 C-14.38766473 -0.95900798 -11.93338629 -0.99113712 -9.47900391 -1.02172852 C-8.74748611 -1.03467453 -8.01596832 -1.04762054 -7.26228333 -1.06095886 C-2.22810432 -1.11405216 -2.22810432 -1.11405216 0 0 Z " fill="#BABBB3" transform="translate(400,360)"/>
<path d="M0 0 C0 0.33 0 0.66 0 1 C-4.95 1.33 -9.9 1.66 -15 2 C-15 2.66 -15 3.32 -15 4 C-19.05573717 4.85961509 -23.11254649 5.71395467 -27.17041016 6.56347656 C-28.54994491 6.85305254 -29.92918123 7.1440541 -31.30810547 7.43652344 C-33.2931722 7.85729461 -35.27926488 8.2728833 -37.265625 8.6875 C-38.45961914 8.93886719 -39.65361328 9.19023437 -40.88378906 9.44921875 C-44 10 -44 10 -48 10 C-48 10.66 -48 11.32 -48 12 C-51.96 12.66 -55.92 13.32 -60 14 C-57.5887131 11.5887131 -55.85711345 11.17593831 -52.6015625 10.1953125 C-51.49167969 9.86080078 -50.38179687 9.52628906 -49.23828125 9.18164062 C-48.04589844 8.83294922 -46.85351562 8.48425781 -45.625 8.125 C-44.40941406 7.76857422 -43.19382813 7.41214844 -41.94140625 7.04492188 C-13.55381545 -1.11912238 -13.55381545 -1.11912238 0 0 Z " fill="#6A6840" transform="translate(222,2)"/>
<path d="M0 0 C0.66 0.33 1.32 0.66 2 1 C0.71034824 2.37562854 -0.62689293 3.70766393 -2 5 C-2.66 5 -3.32 5 -4 5 C-4 5.66 -4 6.32 -4 7 C-4.99 7.33 -5.98 7.66 -7 8 C-7.515625 8.515625 -8.03125 9.03125 -8.5625 9.5625 C-9.036875 10.036875 -9.51125 10.51125 -10 11 C-10.66 11 -11.32 11 -12 11 C-12 11.66 -12 12.32 -12 13 C-13.32 13.33 -14.64 13.66 -16 14 C-16 14.66 -16 15.32 -16 16 C-16.639375 16.28875 -17.27875 16.5775 -17.9375 16.875 C-20.15206079 17.82823451 -20.15206079 17.82823451 -21 20 C-22.75687802 20.99024034 -24.51614234 21.97805252 -26.30859375 22.90234375 C-28.31766868 24.04751017 -28.31766868 24.04751017 -30 27 C-30.99 27.33 -31.98 27.66 -33 28 C-33.33 28.66 -33.66 29.32 -34 30 C-34.99 30.33 -35.98 30.66 -37 31 C-37.515625 31.515625 -38.03125 32.03125 -38.5625 32.5625 C-39.036875 33.036875 -39.51125 33.51125 -40 34 C-40.66 34 -41.32 34 -42 34 C-42 34.66 -42 35.32 -42 36 C-43.98 36.99 -45.96 37.98 -48 39 C-46.56669902 35.54180223 -44.89214527 33.87449752 -41.88671875 31.6796875 C-41.05720703 31.06689941 -40.22769531 30.45411133 -39.37304688 29.82275391 C-38.48681641 29.17999512 -37.60058594 28.53723633 -36.6875 27.875 C-34.85760644 26.52667452 -33.02817938 25.1777157 -31.19921875 23.828125 C-30.30638184 23.17263672 -29.41354492 22.51714844 -28.49365234 21.84179688 C-25.29499322 19.47928616 -22.14082098 17.06358687 -19 14.625 C-13.79500606 10.59989458 -8.542481 6.64485823 -3.265625 2.71484375 C-1.14692833 1.19261667 -1.14692833 1.19261667 0 0 Z " fill="#8F8D67" transform="translate(394,142)"/>
<path d="M0 0 C0.66 0.33 1.32 0.66 2 1 C1 2 0 3 -1 4 C-1.495 4.53625 -1.99 5.0725 -2.5 5.625 C-4 7 -4 7 -7 8 C-8.54166642 9.37485532 -8.54166642 9.37485532 -10 11 C-12.12209075 13.29893164 -12.91624505 13.97208168 -16 15 C-16.33 15.66 -16.66 16.32 -17 17 C-19.38981672 18.62166134 -20.59863885 19.04013612 -23.5 18.75 C-28.67646184 17.19706145 -31.17630891 14.82369109 -35 11 C-37.61620901 8.92944352 -40.29525439 6.95305452 -43 5 C-42.01 4.67 -41.02 4.34 -40 4 C-38.19067383 5.07983398 -38.19067383 5.07983398 -36.20703125 6.74609375 C-35.49482422 7.33583984 -34.78261719 7.92558594 -34.04882812 8.53320312 C-33.31083984 9.16162109 -32.57285156 9.79003906 -31.8125 10.4375 C-31.06291016 11.06205078 -30.31332031 11.68660156 -29.54101562 12.33007812 C-27.68616871 13.87775294 -25.83982294 15.43452276 -24 17 C-19.55471371 15.54266255 -16.6432078 13.23509039 -13.125 10.1875 C-8.88698616 6.55920657 -4.61108452 3.14392126 0 0 Z " fill="#979570" transform="translate(274,234)"/>
<path d="M0 0 C4.64709477 0.48691986 7.48197192 2.57157584 11 5.4375 C12.14552443 6.34674348 13.2913674 7.25558575 14.4375 8.1640625 C15.02273437 8.63231445 15.60796875 9.10056641 16.2109375 9.58300781 C17.97798812 10.98256592 19.76444604 12.35150573 21.5625 13.7109375 C22.13871094 14.14736572 22.71492188 14.58379395 23.30859375 15.03344727 C23.86675781 15.45553467 24.42492187 15.87762207 25 16.3125 C28.9871607 19.32779028 32.54312335 22.40967774 36 26 C32.46929328 26 31.87581154 25.39992771 29.19140625 23.25390625 C28.44963135 22.66778564 27.70785645 22.08166504 26.94360352 21.4777832 C26.15783936 20.84573975 25.3720752 20.21369629 24.5625 19.5625 C22.93820397 18.27515293 21.31320199 16.98869612 19.6875 15.703125 C18.89085937 15.07083984 18.09421875 14.43855469 17.2734375 13.78710938 C13.34049202 10.69548986 9.31481861 7.73368513 5.28515625 4.76953125 C3.35846631 3.2775816 1.66382805 1.77365169 0 0 Z " fill="#B2AE73" transform="translate(196,212)"/>
<path d="M0 0 C0.99 0.33 1.98 0.66 3 1 C1.02 1.99 1.02 1.99 -1 3 C-1 3.66 -1 4.32 -1 5 C-2.32 5.33 -3.64 5.66 -5 6 C-5 6.66 -5 7.32 -5 8 C-6.32 8.33 -7.64 8.66 -9 9 C-9 9.66 -9 10.32 -9 11 C-10.32 11.33 -11.64 11.66 -13 12 C-13 12.66 -13 13.32 -13 14 C-14.98 14.99 -14.98 14.99 -17 16 C-17 15.01 -17 14.02 -17 13 C-14.55078125 10.87890625 -14.55078125 10.87890625 -11.3125 8.5625 C-6.69730277 5.24150313 -6.69730277 5.24150313 -2.29296875 1.65234375 C-1.53628906 1.10707031 -0.77960938 0.56179687 0 0 Z " fill="#AFAC7C" transform="translate(293,219)"/>
<path d="M0 0 C0 0.66 0 1.32 0 2 C-8.91 2 -17.82 2 -27 2 C-27 1.67 -27 1.34 -27 1 C-22.87576495 0.63651564 -18.75054384 0.28578938 -14.625 -0.0625 C-13.449375 -0.16626953 -12.27375 -0.27003906 -11.0625 -0.37695312 C-9.94101562 -0.47041016 -8.81953125 -0.56386719 -7.6640625 -0.66015625 C-6.62717285 -0.74918213 -5.5902832 -0.83820801 -4.52197266 -0.92993164 C-2 -1 -2 -1 0 0 Z " fill="#4F4F4F" transform="translate(400,360)"/>
<path d="M0 0 C6.28199181 3.27756095 11.55515231 7.48636368 17 12 C16.34 12.66 15.68 13.32 15 14 C12.89373968 12.39852104 10.78996262 10.79395125 8.6875 9.1875 C8.09259766 8.73568359 7.49769531 8.28386719 6.88476562 7.81835938 C4.09594339 5.68389766 1.38275027 3.58919794 -1 1 C-0.67 0.67 -0.34 0.34 0 0 Z " fill="#ACA96F" transform="translate(132,161)"/>
<path d="M0 0 C3.03022276 0.59168565 4.91736628 1.46275217 7.3125 3.3984375 C7.91320312 3.87796875 8.51390625 4.3575 9.1328125 4.8515625 C9.74898437 5.35429687 10.36515625 5.85703125 11 6.375 C12.22893794 7.36226395 13.4580987 8.34925062 14.6875 9.3359375 C15.25984375 9.79838867 15.8321875 10.26083984 16.421875 10.73730469 C18.25060504 12.20051505 20.11290544 13.6129855 22 15 C15.44887709 13.90814618 12.66625927 11.66625927 8 7 C5.88891077 5.36459382 3.74416823 3.79064191 1.57421875 2.234375 C1.05472656 1.82703125 0.53523437 1.4196875 0 1 C0 0.67 0 0.34 0 0 Z " fill="#7D7E73" transform="translate(231,238)"/>
<path d="M0 0 C5.8888434 -0.21221057 10.83290313 0.44679567 16.5 2 C17.59054687 2.28617187 17.59054687 2.28617187 18.703125 2.578125 C20.47106531 3.04337245 22.23588933 3.52043593 24 4 C20.22044143 5.25985286 17.15576548 4.64024579 13.3125 4.0625 C12.61060547 3.96259766 11.90871094 3.86269531 11.18554688 3.75976562 C9.45613473 3.51270675 7.7279373 3.25717148 6 3 C6 2.34 6 1.68 6 1 C4.02 1 2.04 1 0 1 C0 0.67 0 0.34 0 0 Z " fill="#6F6D41" transform="translate(287,3)"/>
<path d="M0 0 C4.50343911 0.5112012 6.87525426 2.17521358 10.3125 5.0625 C11.19550781 5.79597656 12.07851562 6.52945313 12.98828125 7.28515625 C13.65214844 7.85105469 14.31601563 8.41695312 15 9 C14.01 9.33 13.02 9.66 12 10 C9.79820104 8.61466465 7.84078757 7.23042903 5.8125 5.625 C4.97428711 4.98691406 4.97428711 4.98691406 4.11914062 4.3359375 C2.72034615 3.25652589 1.35681358 2.13172978 0 1 C0 0.67 0 0.34 0 0 Z " fill="#A5A16A" transform="translate(196,212)"/>
<path d="M0 0 C0.99 0 1.98 0 3 0 C3.05406122 1.93719378 3.09282025 3.87481921 3.125 5.8125 C3.14820313 6.89144531 3.17140625 7.97039062 3.1953125 9.08203125 C3 12 3 12 1 15 C1 10.71 1 6.42 1 2 C0.34 1.67 -0.32 1.34 -1 1 C-0.67 0.67 -0.34 0.34 0 0 Z " fill="#7B7D7F" transform="translate(399,171)"/>
<path d="M0 0 C-2.31 0.33 -4.62 0.66 -7 1 C-7 1.66 -7 2.32 -7 3 C-10.96 3.66 -14.92 4.32 -19 5 C-16.4156782 2.4156782 -14.10624423 1.89598837 -10.625 0.8125 C-9.48289063 0.44769531 -8.34078125 0.08289063 -7.1640625 -0.29296875 C-4.18525347 -0.95860385 -2.79128097 -1.07938697 0 0 Z " fill="#605E3F" transform="translate(181,11)"/>
<path d="M0 0 C0.99 0.33 1.98 0.66 3 1 C2.01 1.33 1.02 1.66 0 2 C0 2.66 0 3.32 0 4 C-1.65 4.66 -3.3 5.32 -5 6 C-5 6.66 -5 7.32 -5 8 C-5.99 8.33 -6.98 8.66 -8 9 C-8 8.01 -8 7.02 -8 6 C-6.35546875 4.359375 -6.35546875 4.359375 -4.1875 2.75 C-3.47980469 2.20859375 -2.77210938 1.6671875 -2.04296875 1.109375 C-1.36878906 0.74328125 -0.69460938 0.3771875 0 0 Z " fill="#B2AF7C" transform="translate(344,180)"/>
<path d="M0 0 C0.66 0.33 1.32 0.66 2 1 C-0.19138979 3.35729943 -2.43931973 5.02057098 -5.1875 6.6875 C-5.90292969 7.12449219 -6.61835938 7.56148437 -7.35546875 8.01171875 C-7.89816406 8.33785156 -8.44085938 8.66398438 -9 9 C-7.63783758 5.78034336 -6.27468847 4.18312565 -3.375 2.25 C-2.74335938 1.82203125 -2.11171875 1.3940625 -1.4609375 0.953125 C-0.97882813 0.63859375 -0.49671875 0.3240625 0 0 Z " fill="#90907A" transform="translate(334,188)"/>
<path d="M0 0 C4.83256305 0.41421969 6.82679218 2.46413986 10 6 C6.62972148 6 5.93297304 5.50175992 3.3125 3.5625 C2.68988281 3.11003906 2.06726563 2.65757812 1.42578125 2.19140625 C0.95527344 1.79824219 0.48476562 1.40507812 0 1 C0 0.67 0 0.34 0 0 Z " fill="#B9B471" transform="translate(174,195)"/>
<path d="M0 0 C0 0.33 0 0.66 0 1 C-3.63 1.33 -7.26 1.66 -11 2 C-11.33 1.34 -11.66 0.68 -12 0 C-7.74433453 -1.16063604 -4.3164922 -0.76173392 0 0 Z " fill="#B6B058" transform="translate(207,5)"/>
<path d="M0 0 C0.66 0.66 1.32 1.32 2 2 C0.68 2.33 -0.64 2.66 -2 3 C-2 3.66 -2 4.32 -2 5 C-3.98 5.99 -3.98 5.99 -6 7 C-6 6.01 -6 5.02 -6 4 C-3 1.8125 -3 1.8125 0 0 Z " fill="#C4BF83" transform="translate(282,228)"/>
<path d="M0 0 C0.99 0.33 1.98 0.66 3 1 C1.02 1.99 1.02 1.99 -1 3 C-1 3.66 -1 4.32 -1 5 C-1.99 5.33 -2.98 5.66 -4 6 C-4 5.01 -4 4.02 -4 3 C-2.1875 1.25 -2.1875 1.25 0 0 Z " fill="#BAB680" transform="translate(323,196)"/>
</svg>
