<?xml version="1.0" encoding="UTF-8"?>
<svg version="1.1" xmlns="http://www.w3.org/2000/svg" width="500" height="494">
<path d="M0 0 C3.22048821 0.01071305 6.44041737 0.00005029 9.66088867 -0.01269531 C69.91122684 -0.05929644 128.06078584 23.61524742 172.44799805 64.13964844 C174.59099117 66.07905722 176.77519443 67.95403518 178.97924805 69.82324219 C182.33952411 72.744928 185.21632562 75.9152258 188.08862305 79.31152344 C189.68264493 81.13587417 191.34580586 82.78429573 193.10424805 84.44824219 C202.19819011 93.44046231 209.08752931 104.45045819 215.79174805 115.26074219 C216.47108398 116.34355469 217.15041992 117.42636719 217.8503418 118.54199219 C219.85749661 121.76596016 221.8251481 125.01191908 223.79174805 128.26074219 C224.4156543 129.24300781 225.03956055 130.22527344 225.68237305 131.23730469 C240.28833068 155.16495073 247.95590642 182.86580656 252.79174805 210.26074219 C252.96104828 211.15640396 253.13034851 212.05206573 253.30477905 212.97486877 C253.80757365 216.36752711 253.93974895 219.5898143 253.96875 223.01855469 C253.9753212 223.66684235 253.9818924 224.31513 253.98866272 224.98306274 C254.00827374 227.11729088 254.02004349 229.25144833 254.0300293 231.38574219 C254.03410482 232.12505981 254.03818035 232.86437744 254.04237938 233.62609863 C254.06320863 237.55476596 254.0775126 241.48339889 254.08691406 245.41210938 C254.0956945 248.61608364 254.11638112 251.81961291 254.1484375 255.0234375 C254.32560135 273.13530374 254.18351367 290.55869679 249.79174805 308.26074219 C249.50388428 309.49115234 249.21602051 310.7215625 248.91943359 311.98925781 C248.17146371 315.02022905 247.35289444 318.01387502 246.47924805 321.01074219 C246.18074951 322.05093506 245.88225098 323.09112793 245.57470703 324.1628418 C241.14238801 339.25828638 235.20463712 353.39932599 227.79174805 367.26074219 C227.43854492 367.92315918 227.0853418 368.58557617 226.72143555 369.26806641 C216.8123839 387.70050644 205.01472233 404.65451744 190.81518555 420.04980469 C189.03581265 421.99406156 187.35086778 423.9846692 185.66674805 426.01074219 C160.62428587 454.73076874 124.91968704 476.20574968 89.22924805 488.82324219 C88.51591309 489.08709717 87.80257813 489.35095215 87.06762695 489.62280273 C81.82456739 491.38782337 77.19386774 491.58838177 71.79174805 490.26074219 C68.3059144 488.10990866 66.16061509 486.13919881 64.79174805 482.26074219 C63.83754019 477.58794092 63.64642115 473.04161922 63.64990234 468.2902832 C63.6446907 467.12542137 63.6446907 467.12542137 63.63937378 465.93702698 C63.6320492 464.25761688 63.62668635 462.57819731 63.62308311 460.8987751 C63.61586429 458.22670484 63.6001547 455.55481262 63.58174133 452.88279724 C63.52954828 445.28753205 63.48140237 437.69236423 63.46582031 430.09692383 C63.45564569 425.4408043 63.42608206 420.78513468 63.3845005 416.12919426 C63.37231632 414.36928677 63.36704581 412.60931537 63.36929893 410.84936714 C63.38478332 394.79677899 61.84291652 377.20212174 49.91674805 365.07324219 C49.21549805 364.47511719 48.51424805 363.87699219 47.79174805 363.26074219 C48.12174805 362.27074219 48.45174805 361.28074219 48.79174805 360.26074219 C49.35869385 360.16575439 49.92563965 360.0707666 50.50976562 359.97290039 C79.73136479 355.01884117 111.70530119 347.96922342 132.79174805 325.26074219 C133.3125293 324.72191406 133.83331055 324.18308594 134.36987305 323.62792969 C157.55919314 298.66285085 161.65896057 263.03075966 160.93237305 230.47509766 C160.08513997 211.10935004 152.40928801 192.04714349 139.7097168 177.46777344 C137.79174805 175.26074219 137.79174805 175.26074219 135.79174805 172.26074219 C136.1617358 168.42016508 137.1874825 164.98136217 138.35424805 161.32324219 C142.36553791 145.35751421 140.88167654 126.72229126 134.65893555 111.48730469 C133.79174805 109.26074219 133.79174805 109.26074219 133.79174805 106.26074219 C113.03034443 106.33410404 90.97833623 116.22619529 74.26782227 128.11132812 C68.86240109 131.78811207 64.49223554 131.90196696 58.17114258 130.80664062 C55.15989865 130.2063482 52.16455008 129.54977845 49.16674805 128.88574219 C17.99207268 122.35196291 -14.08156523 122.34551478 -45.14086914 129.58374023 C-58.59277962 132.67426241 -58.59277962 132.67426241 -64.5402832 129.45996094 C-65.70755913 128.63267648 -66.86730474 127.79470079 -68.02075195 126.94824219 C-75.29353498 122.00910198 -82.9396171 118.59649614 -91.08325195 115.32324219 C-92.22383057 114.86328857 -93.36440918 114.40333496 -94.53955078 113.92944336 C-107.33249625 108.83251267 -107.33249625 108.83251267 -120.83325195 106.57324219 C-121.85676758 106.5075 -122.8802832 106.44175781 -123.93481445 106.37402344 C-124.68504883 106.33664063 -125.4352832 106.29925781 -126.20825195 106.26074219 C-127.25963647 109.9144898 -128.24003724 113.58414307 -129.20825195 117.26074219 C-129.49442383 118.27523437 -129.7805957 119.28972656 -130.07543945 120.33496094 C-133.90996074 135.47219022 -133.62500712 151.15916752 -128.9855957 166.04589844 C-128.17197287 169.4107808 -128.02021073 171.03758103 -129.20825195 174.26074219 C-130.95825195 176.55761719 -130.95825195 176.55761719 -133.20825195 179.01074219 C-147.73437685 196.22431603 -153.64210326 217.85528508 -153.52075195 240.13574219 C-153.5165625 241.20928955 -153.51237305 242.28283691 -153.50805664 243.38891602 C-153.29307147 258.94446502 -151.42813735 274.54403303 -146.20825195 289.26074219 C-145.97654297 289.91848633 -145.74483398 290.57623047 -145.50610352 291.25390625 C-141.52313098 302.32113624 -136.21236442 311.82981888 -129.20825195 321.26074219 C-128.6462207 322.03933594 -128.08418945 322.81792969 -127.50512695 323.62011719 C-113.06966773 341.84670711 -85.29841346 352.29300718 -63.20825195 356.38574219 C-62.35392578 356.55041992 -61.49959961 356.71509766 -60.61938477 356.88476562 C-54.16701348 358.11669285 -47.70041635 359.25788752 -41.20825195 360.26074219 C-41.20825195 364.26074219 -41.20825195 364.26074219 -43.20825195 367.26074219 C-43.86825195 367.26074219 -44.52825195 367.26074219 -45.20825195 367.26074219 C-45.48926758 367.99421875 -45.7702832 368.72769531 -46.05981445 369.48339844 C-47.10088226 372.00108283 -48.28265597 374.30829351 -49.58325195 376.69824219 C-51.78283656 380.93802122 -52.9333619 384.99137846 -54.02075195 389.63574219 C-55.692388 395.71023065 -55.692388 395.71023065 -57.77856445 397.93652344 C-59.90569325 399.08908904 -61.85895608 399.68099659 -64.20825195 400.26074219 C-65.53083008 400.69580078 -65.53083008 400.69580078 -66.88012695 401.13964844 C-78.91791814 404.61688605 -95.16653784 405.89303871 -106.79418945 400.65136719 C-117.78907521 394.31774367 -125.05005008 386.80940406 -131.70825195 376.19824219 C-137.03105099 367.78040765 -142.22485816 362.65011146 -150.64575195 357.44824219 C-151.26659668 357.06240967 -151.88744141 356.67657715 -152.52709961 356.27905273 C-159.41087456 352.21710279 -166.22744687 350.71967066 -174.20825195 351.26074219 C-175.19825195 351.92074219 -176.18825195 352.58074219 -177.20825195 353.26074219 C-174.46899642 357.81532383 -171.97288267 360.46117814 -167.52075195 363.51074219 C-153.88679436 373.42483802 -146.42731021 386.61317137 -139.6574707 401.72167969 C-133.96099771 414.18980992 -126.13401863 421.32488856 -113.20825195 426.26074219 C-95.11840839 431.58373064 -75.79344652 430.47363139 -57.20825195 429.26074219 C-56.83154175 439.25959277 -56.49665486 449.25897991 -56.20825195 459.26074219 C-56.17666992 460.3401709 -56.14508789 461.41959961 -56.11254883 462.53173828 C-56.04173429 465.25401266 -55.99417728 467.97531361 -55.95825195 470.69824219 C-55.92634766 471.86468262 -55.92634766 471.86468262 -55.89379883 473.0546875 C-55.855602 479.20710488 -57.11983725 483.92663164 -61.33325195 488.63574219 C-66.2289955 491.40290158 -70.42074817 491.79435005 -75.94262695 490.73730469 C-91.32558084 486.39341356 -106.41105458 479.25373613 -120.20825195 471.26074219 C-121.01520508 470.80570312 -121.8221582 470.35066406 -122.65356445 469.88183594 C-138.02394072 460.97919226 -152.14934543 450.25779754 -165.20825195 438.26074219 C-166.2767307 437.29661098 -167.3457659 436.33309619 -168.4152832 435.37011719 C-187.4098798 418.18386841 -201.84106731 398.10710569 -214.99682617 376.25195312 C-215.95247891 374.68115431 -216.93663731 373.1276983 -217.9309082 371.58105469 C-229.11882578 354.0668216 -235.51520386 333.53714806 -240.95825195 313.63574219 C-241.23813965 312.63692017 -241.23813965 312.63692017 -241.52368164 311.61791992 C-242.16065903 309.17779333 -242.6918061 306.72941621 -243.20825195 304.26074219 C-243.46936768 303.069729 -243.7304834 301.87871582 -243.99951172 300.65161133 C-246.95471968 285.76320039 -246.70169492 270.66668493 -246.65429688 255.5559082 C-246.64511373 252.48922415 -246.65203039 249.42330204 -246.67480469 246.35668945 C-246.80585244 228.6259561 -246.44360709 211.59915018 -242.20825195 194.26074219 C-242.03424866 193.53104218 -241.86024536 192.80134216 -241.68096924 192.04953003 C-235.62462856 166.85981657 -225.77389007 143.28461186 -212.20825195 121.26074219 C-211.68183105 120.40174316 -211.15541016 119.54274414 -210.61303711 118.65771484 C-200.75867394 102.7077456 -189.80095991 88.2073179 -176.20825195 75.26074219 C-173.70963645 72.78581024 -171.2387645 70.29259431 -168.8059082 67.75292969 C-150.80446336 49.16900358 -128.84326682 36.43176593 -106.20825195 24.26074219 C-105.16531982 23.69395752 -105.16531982 23.69395752 -104.10131836 23.11572266 C-83.90673204 12.30649415 -59.69884519 5.80696157 -37.20825195 2.26074219 C-36.08894287 2.07672852 -34.96963379 1.89271484 -33.81640625 1.703125 C-22.55141259 0.05711183 -11.37057493 -0.04491226 0 0 Z " fill="#FEFEFE" transform="translate(246.208251953125,-0.2607421875)"/>
<path d="M0 0 C13.31672299 5.49123491 23.47956638 14.29135521 31 26.5 C38.24878454 38.22204142 47.3741131 46.49183042 60.9609375 50.109375 C71.81648811 51.54764984 81.89360957 49.93634108 92.4375 47.4375 C93.33597656 47.22480469 94.23445313 47.01210938 95.16015625 46.79296875 C96.92413589 46.3605293 98.68201876 45.90323992 100.4375 45.4375 C100.53546875 44.68726563 100.6334375 43.93703125 100.734375 43.1640625 C102.4565252 31.37624134 105.86192957 22.01307043 114.4375 13.4375 C111.1375 12.7775 107.8375 12.1175 104.4375 11.4375 C104.4375 11.1075 104.4375 10.7775 104.4375 10.4375 C108.7275 10.4375 113.0175 10.4375 117.4375 10.4375 C117.4375 14.4375 117.4375 14.4375 115.4375 17.4375 C114.7775 17.4375 114.1175 17.4375 113.4375 17.4375 C113.15648437 18.17097656 112.87546875 18.90445312 112.5859375 19.66015625 C111.54486969 22.17784064 110.36309598 24.48505133 109.0625 26.875 C106.86291539 31.11477903 105.71239005 35.16813627 104.625 39.8125 C102.95336395 45.88698847 102.95336395 45.88698847 100.8671875 48.11328125 C98.7400587 49.26584685 96.78679588 49.8577544 94.4375 50.4375 C93.55578125 50.72753906 92.6740625 51.01757812 91.765625 51.31640625 C79.72783382 54.79364386 63.47921411 56.06979652 51.8515625 50.828125 C40.85667674 44.49450149 33.59570187 36.98616187 26.9375 26.375 C21.61470097 17.95716546 16.42089379 12.82686927 8 7.625 C7.37915527 7.23916748 6.75831055 6.85333496 6.11865234 6.45581055 C-0.76512261 2.3938606 -7.58169491 0.89642847 -15.5625 1.4375 C-16.5525 2.0975 -17.5425 2.7575 -18.5625 3.4375 C-15.82324447 7.99208164 -13.32713072 10.63793595 -8.875 13.6875 C4.75895759 23.60159584 12.21844174 36.78992918 18.98828125 51.8984375 C24.68475425 64.36656773 32.51173333 71.50164638 45.4375 76.4375 C63.52734357 81.76048845 82.85230544 80.6503892 101.4375 79.4375 C101.8142102 89.43635058 102.14909709 99.43573773 102.4375 109.4375 C102.48487305 111.05664307 102.48487305 111.05664307 102.53320312 112.70849609 C102.60401767 115.43077047 102.65157467 118.15207143 102.6875 120.875 C102.7194043 122.04144043 102.7194043 122.04144043 102.75195312 123.23144531 C102.79014995 129.38386269 101.5259147 134.10338945 97.3125 138.8125 C93.42430209 141.01017708 89.89544485 141.67934149 85.4375 141.4375 C82.375 140 82.375 140 80.4375 138.4375 C83.5034708 136.9045146 86.55388602 137.47169351 89.9296875 137.59765625 C92.69334631 137.42116091 94.16350261 137.00764105 96.4375 135.4375 C98.33953192 132.36979567 98.70212227 129.97243008 98.75634766 126.39355469 C98.77621735 125.39281921 98.79608704 124.39208374 98.81655884 123.36102295 C98.82811005 122.28797913 98.83966125 121.2149353 98.8515625 120.109375 C98.87092865 119.00523254 98.8902948 117.90109009 98.9102478 116.76348877 C98.97000892 113.23823767 99.01641564 109.71295385 99.0625 106.1875 C99.10068292 103.79686079 99.13973483 101.40623529 99.1796875 99.015625 C99.27570767 93.15637174 99.36076548 87.29703585 99.4375 81.4375 C98.60420166 81.57824951 97.77090332 81.71899902 96.91235352 81.86401367 C90.36853511 82.92754236 84.00792488 83.80125678 77.375 83.75 C76.58407959 83.74508545 75.79315918 83.7401709 74.97827148 83.73510742 C56.2594703 83.37665056 38.63036427 80.41207296 24.82836914 66.85717773 C19.53685963 61.27125231 16.60004186 55.10741548 13.5 48.125 C7.39202209 34.40490268 0.08107865 22.67746266 -12.75 14.375 C-16.34719213 11.89693431 -19.19302969 9.1233427 -21.5625 5.4375 C-21.9375 2.5 -21.9375 2.5 -21.5625 0.4375 C-15.07548127 -3.39643542 -6.89309907 -2.30760357 0 0 Z " fill="#BABABA" transform="translate(87.5625,349.5625)"/>
<path d="M0 0 C6.5602717 -0.61170101 10.93976266 1.40792001 16.75 4.3125 C17.66668457 4.76109375 18.58336914 5.2096875 19.52783203 5.671875 C41.88840094 16.7771756 62.20788577 30.03601675 80.65625 46.87890625 C82.79924312 48.81831503 84.98344638 50.69329299 87.1875 52.5625 C90.54777606 55.48418581 93.42457757 58.65448362 96.296875 62.05078125 C97.89089689 63.87513199 99.55405782 65.52355354 101.3125 67.1875 C110.40644207 76.17972012 117.29578126 87.18971601 124 98 C125.01900391 99.62421875 125.01900391 99.62421875 126.05859375 101.28125 C128.06574856 104.50521797 130.03340005 107.75117689 132 111 C132.62390625 111.98226562 133.2478125 112.96453125 133.890625 113.9765625 C144.90323973 132.01755329 151.88144569 152.58447006 157 173 C157.18409424 173.68102783 157.36818848 174.36205566 157.55786133 175.0637207 C158.18480484 177.80932477 158.09305022 180.43937949 158.0625 183.25 C158.05347656 184.32765625 158.04445313 185.4053125 158.03515625 186.515625 C158.01775391 187.74539062 158.01775391 187.74539062 158 189 C157.67 189 157.34 189 157 189 C156.88519287 188.44352783 156.77038574 187.88705566 156.65209961 187.3137207 C149.46597407 152.97688931 136.68620905 119.59688613 116 91 C114.97712891 89.56914062 114.97712891 89.56914062 113.93359375 88.109375 C98.54576072 67.07841894 80.39414639 47.95200867 59 33 C58.18273437 32.42411133 57.36546875 31.84822266 56.5234375 31.25488281 C38.65477379 18.75086701 20.21811445 9.10535831 0 1 C0 0.67 0 0.34 0 0 Z " fill="#B6B6B6" transform="translate(338,17)"/>
<path d="M0 0 C1 2 1 2 0.3984375 3.9609375 C0.06070313 4.75757813 -0.27703125 5.55421875 -0.625 6.375 C-0.99882813 7.2825 -1.37265625 8.19 -1.7578125 9.125 C-2.55570389 10.97169203 -3.38170787 12.80662795 -4.2421875 14.625 C-16.67137054 41.79936293 -14.83933136 77.25943352 -5 105 C-4.76829102 105.65774414 -4.53658203 106.31548828 -4.29785156 106.99316406 C-0.31487903 118.06039405 4.99588753 127.56907669 12 137 C12.56203125 137.77859375 13.1240625 138.5571875 13.703125 139.359375 C22.57986075 150.56737468 36.32369854 157.10634296 49 163 C49 163.99 49 164.98 49 166 C27.86891964 159.67371977 10.47932246 143.48828295 -0.13549805 124.57446289 C-15.19711416 96.51441463 -20.89150322 56.70399239 -12 26 C-9.10677587 16.67664648 -5.5041957 8.11966458 0 0 Z " fill="#A2A2A2" transform="translate(105,184)"/>
<path d="M0 0 C13.50644732 -0.43569185 23.34778091 2.60936298 33.890625 11.4140625 C39.00974759 16.26149982 42.94962408 21.1541205 46.625 27.125 C53.8365484 38.83111431 62.97366973 47.06419689 76.5234375 50.671875 C87.37898811 52.11014984 97.45610957 50.49884108 108 48 C108.89847656 47.78730469 109.79695313 47.57460938 110.72265625 47.35546875 C112.48663589 46.9230293 114.24451876 46.46573992 116 46 C116.09796875 45.24976563 116.1959375 44.49953125 116.296875 43.7265625 C118.0190252 31.93874134 121.42442957 22.57557043 130 14 C125.05 13.01 125.05 13.01 120 12 C120 11.67 120 11.34 120 11 C124.29 11 128.58 11 133 11 C133 15 133 15 131 18 C130.34 18 129.68 18 129 18 C128.71898437 18.73347656 128.43796875 19.46695312 128.1484375 20.22265625 C127.10736969 22.74034064 125.92559598 25.04755133 124.625 27.4375 C122.42541539 31.67727903 121.27489005 35.73063627 120.1875 40.375 C118.51586395 46.44948847 118.51586395 46.44948847 116.4296875 48.67578125 C114.3025587 49.82834685 112.34929588 50.4202544 110 51 C109.11828125 51.29003906 108.2365625 51.58007812 107.328125 51.87890625 C95.29033382 55.35614386 79.04171411 56.63229652 67.4140625 51.390625 C56.41917674 45.05700149 49.15820187 37.54866187 42.5 26.9375 C35.25799216 15.48449879 25.02341917 6.01982951 11.46875 2.76171875 C7.66493046 1.99071363 3.85515683 1.44073409 0 1 C0 0.67 0 0.34 0 0 Z " fill="#B1B1B1" transform="translate(72,349)"/>
<path d="M0 0 C0.99 0.495 0.99 0.495 2 1 C-19.25088215 22.61637644 -48.9159089 29.99401657 -78 34 C-78 36.83173172 -76.67206649 37.64064099 -74.8125 39.75 C-63.5535106 53.94908987 -63.69860182 72.67136244 -63.8046875 89.890625 C-63.80842566 91.68951255 -63.81126883 93.48840215 -63.81326294 95.28729248 C-63.82083626 99.98241977 -63.84042932 104.67741991 -63.8626709 109.37249756 C-63.8832664 114.1793038 -63.89229373 118.98613094 -63.90234375 123.79296875 C-63.92368222 133.19536783 -63.95774041 142.59767327 -64 152 C-64.33 152 -64.66 152 -65 152 C-65.00142502 151.08197098 -65.00285004 150.16394196 -65.00431824 149.21809387 C-65.02231925 140.46828373 -65.06442979 131.71896795 -65.13209057 122.96939564 C-65.16604761 118.47359157 -65.19142092 113.97811598 -65.19555664 109.48217773 C-64.1802647 70.78701041 -64.1802647 70.78701041 -80.71875 37.125 C-81.84796875 36.073125 -81.84796875 36.073125 -83 35 C-82.67 34.01 -82.34 33.02 -82 32 C-81.4330542 31.90501221 -80.8661084 31.81002441 -80.28198242 31.7121582 C-53.00790219 27.08826997 -26.6960586 20.80529707 -4.55078125 3.2265625 C-3.09231143 2.07301206 -1.54721376 1.03147584 0 0 Z " fill="#B4B4B4" transform="translate(377,328)"/>
<path d="M0 0 C3.42728644 3.29592703 6.34220918 6.64853285 9.125 10.5 C14.12325283 17.26430216 19.50993648 23.63252907 25 30 C25.65097656 30.77601563 26.30195312 31.55203125 26.97265625 32.3515625 C30.31951387 36.30070202 33.83985317 39.76068853 37.79296875 43.1015625 C40.28704769 45.24691182 42.66461134 47.49776087 45.0625 49.75 C68.03977843 70.63843494 96.25515703 84.89243002 125 96 C116.58662548 98.80445817 105.83566811 92.39256079 98.375 88.6875 C97.4159375 88.22666016 96.456875 87.76582031 95.46875 87.29101562 C85.60415915 82.48570341 76.46615615 76.77760955 67.4375 70.5625 C66.65181641 70.02818359 65.86613281 69.49386719 65.05664062 68.94335938 C55.77767596 62.58173175 47.27947938 55.60625495 39 48 C37.93152126 47.03586879 36.86248605 46.072354 35.79296875 45.109375 C22.61502931 33.18601856 8.33723736 18.93573218 0 3 C0 2.01 0 1.02 0 0 Z " fill="#B7B7B7" transform="translate(42,390)"/>
<path d="M0 0 C-4.06362798 1.35454266 -6.85247695 -0.00028649 -10.75 -1.3125 C-12.14035943 -1.76773896 -13.53098281 -2.22217261 -14.921875 -2.67578125 C-15.60628662 -2.89911133 -16.29069824 -3.12244141 -16.99584961 -3.35253906 C-22.18609121 -5.0292988 -26.98467192 -6.25739361 -32.4375 -6.625 C-34.01337891 -6.73714844 -34.01337891 -6.73714844 -35.62109375 -6.8515625 C-36.40613281 -6.90054688 -37.19117187 -6.94953125 -38 -7 C-39.05138452 -3.34625239 -40.03178529 0.32340088 -41 4 C-41.28617188 5.01449219 -41.57234375 6.02898437 -41.8671875 7.07421875 C-45.70170879 22.21144804 -45.41675517 37.89842533 -40.77734375 52.78515625 C-39.969033 56.12806956 -39.78651623 57.80377042 -41 61 C-42.84765625 63.01953125 -42.84765625 63.01953125 -45.0625 64.8125 C-45.79597656 65.41707031 -46.52945313 66.02164063 -47.28515625 66.64453125 C-47.85105469 67.09183594 -48.41695313 67.53914063 -49 68 C-49 65 -49 65 -46.4375 62.25 C-45.96183594 61.80140625 -45.48617187 61.3528125 -44.99609375 60.890625 C-42.57465747 56.29464398 -45.5545052 49.23480101 -46.5625 44.375 C-49.94880826 26.89558434 -48.0591936 7.11838719 -40 -9 C-27.09124602 -13.30291799 -11.62250773 -5.37249972 0 0 Z " fill="#B3B3B3" transform="translate(158,113)"/>
<path d="M0 0 C9.6079629 9.30561442 16.39796294 20.48593451 23 32 C23.39251953 32.6820752 23.78503906 33.36415039 24.18945312 34.06689453 C25.38219782 36.14547034 26.56807985 38.22775177 27.75 40.3125 C28.10255859 40.93350586 28.45511719 41.55451172 28.81835938 42.19433594 C33.68600931 50.87482612 37.88383672 59.72723744 41.5 69 C41.88800781 69.99169189 42.27601563 70.98338379 42.67578125 72.00512695 C46.07040887 80.85712937 48.7143889 89.8065375 51 99 C51.20496094 99.69222656 51.40992188 100.38445312 51.62109375 101.09765625 C52.16508145 103.82881098 52.09272036 106.46972698 52.0625 109.25 C52.05347656 110.32765625 52.04445313 111.4053125 52.03515625 112.515625 C52.02355469 113.33546875 52.01195312 114.1553125 52 115 C51.67 115 51.34 115 51 115 C50.88519287 114.44352783 50.77038574 113.88705566 50.65209961 113.3137207 C42.65639953 75.10857049 27.50934006 39.6356741 3.6640625 8.5703125 C1.86499579 5.79147237 0.91491099 3.16984312 0 0 Z " fill="#C6C6C6" transform="translate(444,91)"/>
<path d="M0 0 C0.99 0.495 0.99 0.495 2 1 C-19.41727979 25.18321121 -47.33014894 42.74141666 -77.03173828 55.17041016 C-78.72801074 55.88536101 -80.41043699 56.63300269 -82.08984375 57.38671875 C-89.37266591 60.43459587 -96.17967126 60.41099538 -104 60 C-104 59.67 -104 59.34 -104 59 C-103.34 58.97164063 -102.68 58.94328125 -102 58.9140625 C-65.57810232 55.4046609 -24.41082646 26.24163845 0 0 Z " fill="#C8C8C8" transform="translate(424,429)"/>
<path d="M0 0 C0.33 0 0.66 0 1 0 C3.07333503 32.57439707 -12.14652528 66.52493789 -28.3125 94.0625 C-28.81628174 94.92673584 -29.32006348 95.79097168 -29.83911133 96.68139648 C-30.3214624 97.47876221 -30.80381348 98.27612793 -31.30078125 99.09765625 C-31.72528564 99.80414307 -32.14979004 100.51062988 -32.5871582 101.23852539 C-34.19706687 103.24569509 -35.64254455 104.02665784 -38 105 C-36.62213999 101.20747443 -34.84851979 98.10873454 -32.625 94.75 C-22.32926725 78.49729401 -14.55654806 60.3860847 -9 42 C-8.76732422 41.23059082 -8.53464844 40.46118164 -8.29492188 39.66845703 C-4.4490486 26.64891595 -2.13007104 13.3928894 0 0 Z " fill="#C6C6C6" transform="translate(497,283)"/>
<path d="M0 0 C0 0.66 0 1.32 0 2 C-1.546875 3.19140625 -1.546875 3.19140625 -3.75 4.5625 C-9.72539006 8.42121584 -15.3629156 12.66603381 -21 17 C-21.82757813 17.61875 -22.65515625 18.2375 -23.5078125 18.875 C-41.98588498 33.24039804 -57.03640452 51.06220477 -70.30078125 70.1796875 C-72.42088648 73.2186292 -74.63985932 76.14092221 -77 79 C-75.19889938 62.83749176 -56.32300172 45.78476045 -45 35 C-42.5013845 32.52506806 -40.03051255 30.03185213 -37.59765625 27.4921875 C-10.96716418 0 -10.96716418 0 0 0 Z " fill="#BBBBBB" transform="translate(115,40)"/>
<path d="M0 0 C0 0.33 0 0.66 0 1 C-0.59723877 1.09498779 -1.19447754 1.18997559 -1.80981445 1.2878418 C-15.43172326 3.48240307 -28.76135963 6.09206108 -42 10 C-43.24523437 10.36738281 -44.49046875 10.73476562 -45.7734375 11.11328125 C-65.39452215 17.30605309 -84.479142 26.22328179 -102 37 C-102 36.01 -102 35.02 -102 34 C-71.34912627 16.2917603 -36.43688674 -1.78709526 0 0 Z " fill="#C0C0C0" transform="translate(219,3)"/>
<path d="M0 0 C1.07894531 0.00966797 1.07894531 0.00966797 2.1796875 0.01953125 C4.125 0.1875 4.125 0.1875 7.125 1.1875 C14.63196638 17.27712611 16.8020551 36.78664187 14.125 54.1875 C13.795 54.1875 13.465 54.1875 13.125 54.1875 C13.125 45.6075 13.125 37.0275 13.125 28.1875 C12.465 28.1875 11.805 28.1875 11.125 28.1875 C10.85945313 27.01832031 10.59390625 25.84914062 10.3203125 24.64453125 C9.96375149 23.09630583 9.60696898 21.54813141 9.25 20 C9.07597656 19.23107422 8.90195312 18.46214844 8.72265625 17.66992188 C7.79536284 13.66882255 6.67219632 9.99973597 5.125 6.1875 C5.125 5.1975 5.125 4.2075 5.125 3.1875 C-6.20777786 3.22754515 -17.84380568 5.9165703 -27.91381836 11.27172852 C-30.60679703 12.52921177 -32.94453931 12.32070276 -35.875 12.1875 C-32.11910256 8.89479635 -27.78734494 7.38254141 -23.1875 5.625 C-22.42244141 5.32142578 -21.65738281 5.01785156 -20.86914062 4.70507812 C-14.18105568 2.11886836 -7.24793898 -0.14602075 0 0 Z " fill="#AEAEAE" transform="translate(374.875,102.8125)"/>
<path d="M0 0 C0.33 0 0.66 0 1 0 C2.01627216 4.20223886 2.15127418 8.27341327 2.15771484 12.57250977 C2.16279556 13.31783966 2.16787628 14.06316956 2.17311096 14.83108521 C2.18377707 16.44287013 2.19241185 18.05466951 2.19923019 19.6664753 C2.21106 22.21782701 2.23052061 24.76901257 2.25234985 27.32029724 C2.31384756 34.57179251 2.36808045 41.82326697 2.40136719 49.07495117 C2.4222976 53.51585267 2.45757919 57.95644446 2.50212479 62.39716911 C2.51628877 64.08801573 2.52500813 65.77891706 2.52817917 67.46982002 C2.5330816 69.8325058 2.55621842 72.19436639 2.58349609 74.55688477 C2.58048996 75.2546553 2.57748383 75.95242584 2.5743866 76.67134094 C2.64512387 80.791763 3.26902588 82.92470681 6 86 C6 86.66 6 87.32 6 88 C7.32 88.33 8.64 88.66 10 89 C10 89.66 10 90.32 10 91 C13.63 91 17.26 91 21 91 C16.12768107 93.43615947 13.19216332 93.28876911 8 92 C4.51416635 89.84916647 2.36886704 87.87845662 1 84 C0.05348322 79.36590735 -0.13745872 74.87033993 -0.11352539 70.15869141 C-0.11367142 69.39703674 -0.11381744 68.63538208 -0.1139679 67.85064697 C-0.11327518 65.35092246 -0.10551299 62.85127388 -0.09765625 60.3515625 C-0.09578979 58.61135906 -0.09436696 56.87115509 -0.09336853 55.13095093 C-0.08956131 50.56401097 -0.07974642 45.99710311 -0.06866455 41.43017578 C-0.05841177 36.76465285 -0.05386264 32.09912471 -0.04882812 27.43359375 C-0.03812247 18.28904844 -0.0210677 9.1445269 0 0 Z " fill="#EAEAEA" transform="translate(310,398)"/>
<path d="M0 0 C2.33148617 2.33148617 2.86698958 4.10087969 4 7.1875 C7.2570189 15.19514115 11.94764363 22.03668148 17 29 C17.56460938 29.78503906 18.12921875 30.57007813 18.7109375 31.37890625 C27.61637752 42.56721288 41.31756899 49.10349311 54 55 C54 55.99 54 56.98 54 58 C31.55434005 51.28015736 14.7364927 34.17066549 3.6640625 14.19921875 C1.04262443 9.15941176 -0.26634871 5.72649726 0 0 Z " fill="#BABABA" transform="translate(100,292)"/>
<path d="M0 0 C0.66 0.33 1.32 0.66 2 1 C1.67 1.66 1.34 2.32 1 3 C1.88171875 3.35964844 1.88171875 3.35964844 2.78125 3.7265625 C9.64227801 7.66440604 12.8663812 16.38614253 15.17578125 23.5546875 C17.93583169 35.09195996 18.26794811 46.10079922 18.1953125 57.890625 C18.19157434 59.68951255 18.18873117 61.48840215 18.18673706 63.28729248 C18.17916374 67.98241977 18.15957068 72.67741991 18.1373291 77.37249756 C18.1167336 82.1793038 18.10770627 86.98613094 18.09765625 91.79296875 C18.07631778 101.19536783 18.04225959 110.59767327 18 120 C17.67 120 17.34 120 17 120 C16.99857498 119.08197098 16.99714996 118.16394196 16.99568176 117.21809387 C16.97768075 108.46828373 16.93557021 99.71896795 16.86790943 90.96939564 C16.83395239 86.47359157 16.80857908 81.97811598 16.80444336 77.48217773 C17.8197353 38.78701041 17.8197353 38.78701041 1.28125 5.125 C0.5284375 4.42375 -0.224375 3.7225 -1 3 C-0.67 2.01 -0.34 1.02 0 0 Z " fill="#838383" transform="translate(295,360)"/>
<path d="M0 0 C0.66 0 1.32 0 2 0 C0.56700833 3.95253745 -1.32371131 7.5450431 -3.32495117 11.22802734 C-12.5158962 28.17388618 -19.18076929 45.64682965 -25 64 C-27.89768405 54.91884174 -22.5565749 44.41047098 -19.125 36.125 C-18.64756348 34.95984863 -18.17012695 33.79469727 -17.67822266 32.59423828 C-6.83564297 6.83564297 -6.83564297 6.83564297 0 0 Z " fill="#9A9A9A" transform="translate(35,120)"/>
<path d="M0 0 C2.15377564 2.62198774 3.40072174 4.64404172 4 8 C4.66 8 5.32 8 6 8 C11.2724985 20.47870499 15.70042177 32.85833219 19 46 C19.18175781 46.67256836 19.36351562 47.34513672 19.55078125 48.03808594 C20.18187782 50.7943316 20.09317554 53.4278506 20.0625 56.25 C20.05347656 57.32765625 20.04445313 58.4053125 20.03515625 59.515625 C20.02355469 60.33546875 20.01195312 61.1553125 20 62 C19.67 62 19.34 62 19 62 C18.88519287 61.44352783 18.77038574 60.88705566 18.65209961 60.3137207 C14.86097011 42.19890019 9.97643615 24.69472967 2.13330078 7.88330078 C0.81739926 5.04619589 0 3.17293868 0 0 Z " fill="#B6B6B6" transform="translate(476,144)"/>
<path d="M0 0 C1.98 0 3.96 0 6 0 C6.30031258 8.87200028 6.57913201 17.74415617 6.81924438 26.61799622 C6.93583916 30.89107447 7.07973629 35.16196006 7.2421875 39.43359375 C7.28825679 41.18484945 7.33270014 42.9361492 7.375 44.6875 C7.41302734 45.4619043 7.45105469 46.23630859 7.49023438 47.03417969 C7.55006228 50.93531091 7.06023463 53.41545947 4.6640625 56.43359375 C1.11837927 59.84930325 -1.75800354 60.7265858 -6.5625 61.3125 C-9.60630687 60.92226835 -11.49169856 59.71997813 -14 58 C-10.9340292 56.4670146 -7.88361398 57.03419351 -4.5078125 57.16015625 C-1.74415369 56.98366091 -0.27399739 56.57014105 2 55 C3.90203192 51.93229567 4.26462227 49.53493008 4.31884766 45.95605469 C4.33871735 44.95531921 4.35858704 43.95458374 4.37905884 42.92352295 C4.39638565 41.31395721 4.39638565 41.31395721 4.4140625 39.671875 C4.43342865 38.56773254 4.4527948 37.46359009 4.4727478 36.32598877 C4.53250892 32.80073767 4.57891564 29.27545385 4.625 25.75 C4.66318292 23.35936079 4.70223483 20.96873529 4.7421875 18.578125 C4.83820767 12.71887174 4.92326548 6.85953585 5 1 C3.35 1 1.7 1 0 1 C0 0.67 0 0.34 0 0 Z " fill="#818181" transform="translate(182,430)"/>
<path d="M0 0 C-1 3 -1 3 -2.8984375 4.140625 C-3.71570313 4.50671875 -4.53296875 4.8728125 -5.375 5.25 C-10.3594379 7.57844456 -14.70787328 10.42921934 -19.1640625 13.64453125 C-26.3196926 17.06464646 -34.57139947 14.27322865 -41.9375 12.625 C-42.99001953 12.40328125 -44.04253906 12.1815625 -45.12695312 11.953125 C-46.12533203 11.73398438 -47.12371094 11.51484375 -48.15234375 11.2890625 C-49.05976318 11.09006348 -49.96718262 10.89106445 -50.90209961 10.68603516 C-51.59440674 10.45964355 -52.28671387 10.23325195 -53 10 C-53.33 9.34 -53.66 8.68 -54 8 C-46.55446983 8.44065383 -39.51649517 9.65000286 -32.26171875 11.37890625 C-24.10713323 12.93169559 -20.13202378 10.78913104 -13.25 6.5625 C-11.54689816 5.54293006 -9.84377425 4.523397 -8.140625 3.50390625 C-7.39329102 3.04830322 -6.64595703 2.5927002 -5.87597656 2.12329102 C-2.32992828 0 -2.32992828 0 0 0 Z " fill="#BBBBBB" transform="translate(337,116)"/>
<path d="M0 0 C4.4254738 1.34890568 8.31684958 3.09673022 12.375 5.3125 C14.08236328 6.23482422 14.08236328 6.23482422 15.82421875 7.17578125 C18.42083597 8.66731906 20.77234196 10.2439686 23.1875 12 C28.45850256 15.37742811 33.68323254 13.71600059 39.4609375 12.46875 C40.98131847 12.12527523 42.49974951 11.77299879 44.015625 11.41015625 C46.37517296 10.92245441 48.59813342 10.84504087 51 11 C50.67 11.66 50.34 12.32 50 13 C47.47369614 13.81532068 45.01138164 14.50172821 42.4375 15.125 C41.74591797 15.30675781 41.05433594 15.48851562 40.34179688 15.67578125 C33.95211712 17.25980251 28.0193725 18.4872054 22.0703125 14.953125 C20.74464742 14.06769451 19.42969836 13.16604435 18.125 12.25 C12.2977049 8.36831348 6.71057709 5.16158012 0 3 C0 2.01 0 1.02 0 0 Z " fill="#B6B6B6" transform="translate(159,114)"/>
<path d="M0 0 C3.27121783 2.65786448 4.5204052 6.11525331 6 9.9375 C6.26127686 10.60338135 6.52255371 11.2692627 6.79174805 11.95532227 C11.88804027 25.27246654 13.15965384 37.84543354 13.0625 52 C13.05798828 53.25167969 13.05347656 54.50335938 13.04882812 55.79296875 C13.03711415 58.86202941 13.02071073 61.93098907 13 65 C12.67 65 12.34 65 12 65 C11.98598145 64.16529175 11.98598145 64.16529175 11.97167969 63.3137207 C11.57621666 44.35281937 10.12801723 24.74689038 1.25 7.625 C-0.08230828 4.82715262 -0.26976392 3.05732444 0 0 Z " fill="#969696" transform="translate(397,189)"/>
<path d="M0 0 C5.45962415 0.28520425 7.96540982 3.50218628 11.5 7.25 C12.05558594 7.82363281 12.61117188 8.39726563 13.18359375 8.98828125 C14.28310163 10.12400821 15.37902737 11.26321496 16.47119141 12.40600586 C19.50715195 15.5714141 22.62877487 18.64281279 25.7890625 21.68359375 C26.72492188 22.59238281 27.66078125 23.50117187 28.625 24.4375 C29.56601562 25.34371094 30.50703125 26.24992187 31.4765625 27.18359375 C34.012701 30.01417557 35.6017067 32.47451582 37 36 C36.505 36.99 36.505 36.99 36 38 C35.35417969 37.20980469 34.70835937 36.41960937 34.04296875 35.60546875 C25.61582492 25.46261899 16.39987674 16.20655321 7.00048828 6.96826172 C4.65331345 4.65889834 2.32363072 2.33301913 0 0 Z " fill="#B7B7B7" transform="translate(409,58)"/>
<path d="M0 0 C0.66 0 1.32 0 2 0 C1.86424561 0.64622314 1.72849121 1.29244629 1.58862305 1.95825195 C-1.92804472 18.9046319 -4.36516355 35.77212201 -6 53 C-6.33 53 -6.66 53 -7 53 C-7.60808557 36.11860919 -6.17076949 20.38400666 -2 4 C-1.34 4 -0.68 4 0 4 C0 2.68 0 1.36 0 0 Z " fill="#B8B8B8" transform="translate(7,186)"/>
<path d="M0 0 C1.42406157 4.27218472 -0.37467041 7.11457241 -2.0625 11.0625 C-2.38613525 11.82892822 -2.70977051 12.59535645 -3.04321289 13.38500977 C-7.26667229 23.18314567 -12.62959722 32.19799706 -20 40 C-20.66 40 -21.32 40 -22 40 C-21.39631819 36.50334953 -20.07139134 34.57769119 -17.8125 31.875 C-10.48479677 22.66303023 -6.1074106 12.92396436 -2 2 C-1.34 2 -0.68 2 0 2 C0 1.34 0 0.68 0 0 Z " fill="#B2B2B2" transform="translate(402,287)"/>
<path d="M0 0 C1 3 1 3 0.2421875 4.69921875 C-8.21621129 17.00014728 -17.51350033 28.42408044 -29 38 C-29 35 -29 35 -27.26953125 33.1171875 C-26.45871094 32.37726563 -25.64789063 31.63734375 -24.8125 30.875 C-17.65191734 23.9486896 -11.92168678 15.98124199 -6 8 C-4.87070548 6.49150296 -3.74053041 4.98366464 -2.609375 3.4765625 C-2.10889648 2.80963379 -1.60841797 2.14270508 -1.09277344 1.45556641 C-0.55185059 0.73506104 -0.55185059 0.73506104 0 0 Z " fill="#AFAFAF" transform="translate(457,390)"/>
<path d="M0 0 C-0.80497925 0.33040283 -0.80497925 0.33040283 -1.6262207 0.66748047 C-16.56327356 6.83640876 -31.21136799 13.51889698 -45 22 C-45 21.01 -45 20.02 -45 19 C-41.37740898 16.93324796 -37.75149089 14.87240016 -34.125 12.8125 C-33.11179688 12.23435547 -32.09859375 11.65621094 -31.0546875 11.06054688 C-7.28038812 -2.42679604 -7.28038812 -2.42679604 0 0 Z " fill="#B4B4B4" transform="translate(162,18)"/>
<path d="M0 0 C7.58901249 -0.02321781 15.17802127 -0.04096311 22.76706123 -0.05181217 C26.29133488 -0.05702039 29.81558414 -0.06408045 33.33984375 -0.07543945 C37.39583565 -0.08842978 41.45180212 -0.09324526 45.5078125 -0.09765625 C46.76739777 -0.10281754 48.02698303 -0.10797882 49.32473755 -0.11329651 C50.50550873 -0.11337204 51.68627991 -0.11344757 52.90283203 -0.11352539 C53.93763702 -0.115746 54.97244202 -0.11796661 56.03860474 -0.12025452 C59.09847423 0.00399878 61.99302204 0.4340608 65 1 C65.495 2.485 65.495 2.485 66 4 C64.14918823 3.78561279 64.14918823 3.78561279 62.26098633 3.56689453 C48.36479312 2.04953473 34.65529374 1.75744652 20.6875 1.875 C18.56706161 1.88506871 16.44661849 1.89418756 14.32617188 1.90234375 C9.2173273 1.92400576 4.10871877 1.95831188 -1 2 C-0.67 1.34 -0.34 0.68 0 0 Z " fill="#9F9F9F" transform="translate(226,1)"/>
<path d="M0 0 C1 2 1 2 0.3984375 3.9609375 C0.06070313 4.75757813 -0.27703125 5.55421875 -0.625 6.375 C-0.99753906 7.27347656 -1.37007812 8.17195312 -1.75390625 9.09765625 C-2.58249806 11.02757386 -3.42361547 12.95216321 -4.27734375 14.87109375 C-7.06274614 21.24619405 -8.93512828 27.34457584 -10.2265625 34.1875 C-11.02464163 37.08960592 -12.04038909 38.74807144 -14 41 C-13.93510213 26.26818337 -8.03157777 12.11865285 0 0 Z " fill="#A5A5A5" transform="translate(105,184)"/>
<path d="M0 0 C14.84346969 -1.33324578 29.6992288 3.76111531 43 10 C43 10.66 43 11.32 43 12 C37.98283799 10.66714703 32.97728281 9.30794702 28.01171875 7.79296875 C18.73777623 4.97233254 9.54662283 2.70922068 0 1 C0 0.67 0 0.34 0 0 Z " fill="#B6B6B6" transform="translate(294,5)"/>
<path d="M0 0 C0.33 0 0.66 0 1 0 C1.07516846 0.79994385 1.15033691 1.5998877 1.2277832 2.42407227 C1.58137179 6.1376878 1.9434793 9.85039148 2.3125 13.5625 C2.37836304 14.22627655 2.44422607 14.8900531 2.51208496 15.57394409 C3.38821046 24.29186985 4.47991805 32.8265249 6.546875 41.34765625 C6.99781883 43.98723263 6.88631833 45.50273822 6 48 C2.70370308 44.70370308 2.66227619 40.29697999 1.875 35.8125 C1.69614258 34.80050537 1.51728516 33.78851074 1.33300781 32.74584961 C-0.43347641 21.83150065 -0.40063177 11.02199627 0 0 Z " fill="#CCCCCC" transform="translate(0,262)"/>
<path d="M0 0 C0.33 0 0.66 0 1 0 C1.44814452 5.27995722 -0.02806818 8.92605883 -2.4375 13.5 C-2.79223389 14.18908447 -3.14696777 14.87816895 -3.51245117 15.58813477 C-6.08572077 20.49074886 -8.85935065 25.25458766 -11.8125 29.9375 C-12.1849585 30.53433594 -12.55741699 31.13117188 -12.94116211 31.74609375 C-15.63068986 35.87689662 -15.63068986 35.87689662 -19 37 C-17.58360788 33.08534842 -15.71030899 29.85538226 -13.4375 26.375 C-8.11061126 18.01613213 -4.09524667 9.00696885 0 0 Z " fill="#B6B6B6" transform="translate(478,351)"/>
<path d="M0 0 C0.33 0.66 0.66 1.32 1 2 C-1.23263285 6.554571 -3.86400293 10.08342567 -7.22265625 13.84375 C-10.37369479 17.66654841 -13.07664106 21.81496803 -15.8515625 25.9140625 C-17.79863688 28.71076934 -19.83760818 31.36794842 -22 34 C-20.56204996 21.09629045 -8.04627447 9.64521363 0 0 Z " fill="#C3C3C3" transform="translate(60,85)"/>
<path d="M0 0 C0.33 0 0.66 0 1 0 C1.0093457 0.58265625 1.01869141 1.1653125 1.02832031 1.765625 C1.25801471 13.2233218 1.91129006 23.78779114 5.2578125 34.78515625 C6.02685637 38.11633048 6.2018772 39.82014553 5 43 C3.15234375 45.01953125 3.15234375 45.01953125 0.9375 46.8125 C0.20402344 47.41707031 -0.52945313 48.02164063 -1.28515625 48.64453125 C-1.85105469 49.09183594 -2.41695313 49.53914063 -3 50 C-3 47 -3 47 -0.45703125 44.23828125 C1.71796887 41.73799011 1.99533864 41.29438299 2.05078125 37.79296875 C1.80714844 36.60316406 1.56351562 35.41335937 1.3125 34.1875 C-0.02655124 26.60139504 -0.18441514 19.19507782 -0.125 11.5 C-0.11686279 10.37102295 -0.10872559 9.2420459 -0.1003418 8.07885742 C-0.07485069 5.38571143 -0.04187577 2.69293386 0 0 Z " fill="#F6F6F6" transform="translate(112,131)"/>
<path d="M0 0 C0.33 0 0.66 0 1 0 C1 2.97 1 5.94 1 9 C-12.44809442 16.64695565 -25.96437734 16.41581994 -41 16 C-41 15.67 -41 15.34 -41 15 C-39.84886719 14.99742187 -38.69773438 14.99484375 -37.51171875 14.9921875 C-26.47772328 14.785322 -17.08433158 12.9453173 -6.68359375 9.27734375 C-3 8 -3 8 -1 8 C-0.67 5.36 -0.34 2.72 0 0 Z " fill="#DBDBDB" transform="translate(189,387)"/>
<path d="M0 0 C2.30926481 2.91395102 4.0624911 5.86187403 5.7421875 9.17578125 C6.25136719 10.16900391 6.76054687 11.16222656 7.28515625 12.18554688 C8.33871327 14.25771493 9.39081499 16.3306236 10.44140625 18.40429688 C13.28469333 23.94405142 16.21630906 29.05048547 20 34 C19.67 34.66 19.34 35.32 19 36 C14.2996963 31.8124567 11.44966508 27.08168583 8.375 21.625 C7.89804687 20.8 7.42109375 19.975 6.9296875 19.125 C-0.54886642 6.03753064 -0.54886642 6.03753064 0 0 Z " fill="#BBBBBB" transform="translate(21,352)"/>
<path d="M0 0 C-0.66 0 -1.32 0 -2 0 C-2 0.66 -2 1.32 -2 2 C-12.66977059 4.83805066 -23.14135625 7.43716936 -34.12890625 8.640625 C-37.06546323 8.91295889 -37.06546323 8.91295889 -40 10 C-39.67 9.01 -39.34 8.02 -39 7 C-38.434021 6.89260498 -37.86804199 6.78520996 -37.28491211 6.67456055 C-32.30926581 5.70725317 -27.37153896 4.63539703 -22.44140625 3.45703125 C-21.31412109 3.18826172 -20.18683594 2.91949219 -19.02539062 2.64257812 C-16.68827738 2.08235639 -14.3523584 1.5171321 -12.01757812 0.94726562 C-10.89931641 0.68236328 -9.78105469 0.41746094 -8.62890625 0.14453125 C-7.61900635 -0.09934326 -6.60910645 -0.34321777 -5.56860352 -0.59448242 C-3 -1 -3 -1 0 0 Z " fill="#A8A8A8" transform="translate(336,353)"/>
<path d="M0 0 C2.28128987 3.42193481 3.17780426 6.77675432 4.25 10.6875 C6.2023985 17.60352212 8.49670125 24.30743275 11.12011719 30.99682617 C13 35.81695934 13 35.81695934 13 38 C12.01 38 11.02 38 10 38 C8.87066607 34.98076952 7.74733369 31.95933893 6.625 28.9375 C6.14933594 27.66616211 6.14933594 27.66616211 5.6640625 26.36914062 C3.10979116 19.47792941 0.87309526 12.95091296 0.375 5.5625 C0.30023437 4.51191406 0.22546875 3.46132813 0.1484375 2.37890625 C0.07496094 1.20134766 0.07496094 1.20134766 0 0 Z " fill="#CBCBCB" transform="translate(7,311)"/>
<path d="M0 0 C5.47146193 0.43424301 10.11420584 1.2423007 15.2578125 3.109375 C19.6309425 4.52970782 24.1109573 5.531811 28.59204102 6.55395508 C33.78564792 7.78564792 33.78564792 7.78564792 36 10 C29.18783398 9.66497544 22.88664727 8.347027 16.3125 6.625 C15.50514404 6.41593018 14.69778809 6.20686035 13.8659668 5.99145508 C9.03067312 4.69016082 4.55334491 3.08466393 0 1 C0 0.67 0 0.34 0 0 Z " fill="#A9A9A9" transform="translate(155,350)"/>
<path d="M0 0 C3.2621065 3.71712135 5.08191868 7.21836225 6.875 11.8125 C8.94773016 16.97442774 11.29598516 21.2668905 14.99609375 25.44921875 C15.49302734 26.21685547 15.49302734 26.21685547 16 27 C15.67 27.99 15.34 28.98 15 30 C9.76020426 25.1695633 6.57716341 19.67792106 3.5625 13.3125 C3.20865234 12.57588135 2.85480469 11.8392627 2.49023438 11.08032227 C0.74274651 7.26309939 -0.48271263 4.29360182 0 0 Z " fill="#B6B6B6" transform="translate(99,388)"/>
<path d="M0 0 C0.66 0 1.32 0 2 0 C0.71663984 3.33209776 -0.70953452 6.49104583 -2.3828125 9.64453125 C-3.04990234 10.90620117 -3.04990234 10.90620117 -3.73046875 12.19335938 C-4.19066406 13.05767578 -4.65085937 13.92199219 -5.125 14.8125 C-5.59292969 15.69615234 -6.06085937 16.57980469 -6.54296875 17.49023438 C-7.69307603 19.66135525 -8.84548146 21.8312226 -10 24 C-10.66 24 -11.32 24 -12 24 C-12.28875 24.94875 -12.5775 25.8975 -12.875 26.875 C-14 30 -14 30 -16 32 C-15.37279495 27.35868264 -13.47925894 23.49915133 -11.375 19.375 C-11.02034668 18.67439453 -10.66569336 17.97378906 -10.30029297 17.25195312 C-7.25377974 11.32433592 -4.12141716 5.25759163 0 0 Z " fill="#CBCBCB" transform="translate(35,120)"/>
<path d="M0 0 C7.1542423 0.90356347 10.69572253 6.16056404 15.03515625 11.5078125 C18.63317479 16.33964848 20.86780449 19.91900649 21 26 C18.55721893 22.8409714 16.40634271 19.54708195 14.25 16.1875 C10.93040541 11.17448422 7.43418343 7.03005532 3 3 C1.99539178 2.00462956 0.99401214 1.00595222 0 0 Z " fill="#B1B1B1" transform="translate(78,365)"/>
<path d="M0 0 C11.79956029 -0.38063098 21.43333177 1.52948807 31 9 C31.83984375 11.2265625 31.83984375 11.2265625 32 13 C31.29875 12.61328125 30.5975 12.2265625 29.875 11.828125 C27.89730459 10.74254219 25.91526407 9.66484983 23.9296875 8.59375 C22.2538954 7.6821191 20.58609209 6.75448809 18.9453125 5.78125 C13.0098951 2.41869594 6.70377114 1.77665641 0 1 C0 0.67 0 0.34 0 0 Z " fill="#C6C6C6" transform="translate(72,349)"/>
<path d="M0 0 C0.33 0 0.66 0 1 0 C0.67 10.56 0.34 21.12 0 32 C-0.66 32 -1.32 32 -2 32 C-2.05802751 27.41671978 -2.09360593 22.83353396 -2.125 18.25 C-2.14175781 16.94804687 -2.15851563 15.64609375 -2.17578125 14.3046875 C-2.18222656 13.05429688 -2.18867187 11.80390625 -2.1953125 10.515625 C-2.20578613 9.36352539 -2.21625977 8.21142578 -2.22705078 7.02441406 C-2.00758762 4.10107034 -1.52728122 2.46267491 0 0 Z " fill="#A1A1A1" transform="translate(92,222)"/>
<path d="M0 0 C0.99 0.33 1.98 0.66 3 1 C3.87782924 5.51368252 4.1166438 9.77219979 4.09765625 14.3671875 C4.0962413 15.04677521 4.09482635 15.72636292 4.09336853 16.42654419 C4.08781518 18.57607612 4.07527169 20.72550008 4.0625 22.875 C4.05747896 24.34114432 4.05291711 25.80729029 4.04882812 27.2734375 C4.03786111 30.84899283 4.02062919 34.42448586 4 38 C3.67 38 3.34 38 3 38 C2.94465088 37.16863525 2.88930176 36.33727051 2.83227539 35.48071289 C2.62323523 32.35511659 2.41241384 29.22964662 2.20043945 26.10424805 C2.06522213 24.10279236 1.93200456 22.1012019 1.79882812 20.09960938 C1.34159863 13.37664234 0.81506068 6.68937192 0 0 Z " fill="#A8A8A8" transform="translate(496,209)"/>
<path d="M0 0 C4.8561018 1.55691814 8.33318342 4.35517009 12.25 7.5 C13.20519531 8.24830078 13.20519531 8.24830078 14.1796875 9.01171875 C18.86505181 12.73010362 18.86505181 12.73010362 20 15 C15.13636781 14.53462431 12.0266955 12.1277295 8.3125 9.1875 C7.73177734 8.74857422 7.15105469 8.30964844 6.55273438 7.85742188 C3.56493663 5.5328116 1.30509221 3.61215845 0 0 Z " fill="#C3C3C3" transform="translate(391,43)"/>
<path d="M0 0 C-0.33 0.66 -0.66 1.32 -1 2 C-3.52630386 2.81532068 -5.98861836 3.50172821 -8.5625 4.125 C-9.59987305 4.39763672 -9.59987305 4.39763672 -10.65820312 4.67578125 C-15.55054428 5.88860767 -19.9583894 6.33939181 -25 6 C-25.66 5.34 -26.32 4.68 -27 4 C-26.16597656 3.87882813 -25.33195313 3.75765625 -24.47265625 3.6328125 C-19.27481542 2.85879267 -14.11606368 2.0869271 -9 0.875 C-5.93364618 0.15217626 -3.17005512 -0.20451969 0 0 Z " fill="#BFBFBF" transform="translate(210,125)"/>
<path d="M0 0 C7.33126033 1.40985776 13.43032485 4.51807217 20 8 C20 8.99 20 9.98 20 11 C15.08558588 9.56347895 10.99761642 7.45840385 6.625 4.875 C5.98433594 4.50246094 5.34367188 4.12992187 4.68359375 3.74609375 C3.11951523 2.83565998 1.55934466 1.91851809 0 1 C0 0.67 0 0.34 0 0 Z " fill="#B4B4B4" transform="translate(134,339)"/>
<path d="M0 0 C-5.97231586 7.05819147 -18.37831252 7.83821233 -27 9 C-23.42731216 5.42731216 -18.20799711 4.43565424 -13.5 2.8125 C-11.89318359 2.24112305 -11.89318359 2.24112305 -10.25390625 1.65820312 C-9.23167969 1.30306641 -8.20945313 0.94792969 -7.15625 0.58203125 C-6.21587891 0.25436768 -5.27550781 -0.0732959 -4.30664062 -0.41088867 C-2 -1 -2 -1 0 0 Z " fill="#C8C8C8" transform="translate(180,10)"/>
<path d="M0 0 C0.66 0.33 1.32 0.66 2 1 C1.01 1.33 0.02 1.66 -1 2 C-1 2.66 -1 3.32 -1 4 C-9.45977188 7.86732429 -16.76194702 8.48550351 -26 8 C-26 7.67 -26 7.34 -26 7 C-25.21238281 6.91363281 -24.42476563 6.82726562 -23.61328125 6.73828125 C-16.05840311 5.76374667 -9.58258492 3.93085568 -2.58203125 0.92578125 C-1.72996094 0.62027344 -0.87789063 0.31476563 0 0 Z " fill="#ACACAC" transform="translate(346,481)"/>
<path d="M0 0 C6.68412752 3.63566563 13.35556707 7.29224236 20 11 C20 11.33 20 11.66 20 12 C12.03916679 11.65387682 6.46068498 7.30712332 0 3 C0 2.01 0 1.02 0 0 Z " fill="#B1B1B1" transform="translate(113,460)"/>
<path d="M0 0 C3.53679481 4.07170508 5.92585105 8.33424946 8.3125 13.125 C8.8703418 14.19814453 8.8703418 14.19814453 9.43945312 15.29296875 C10.37469785 17.15649175 11.19599595 19.07620735 12 21 C11.67 21.99 11.34 22.98 11 24 C8 18.25 8 18.25 8 16 C7.34 16 6.68 16 6 16 C4.98696238 14.27843904 3.99005152 12.54738194 3 10.8125 C2.443125 9.84957031 1.88625 8.88664063 1.3125 7.89453125 C-0.02216758 4.95111257 -0.27915461 3.18119943 0 0 Z " fill="#C9C9C9" transform="translate(469,128)"/>
<path d="M0 0 C0.99 0.33 1.98 0.66 3 1 C-2.66666667 6.66666667 -8.33333333 12.33333333 -14 18 C-12.71266722 11.56333612 -8.59826682 8.28593172 -4 4 C-2.6620451 2.67130431 -1.32736773 1.33927237 0 0 Z " fill="#B0B0B0" transform="translate(74,71)"/>
<path d="M0 0 C1 2 1 2 0.36328125 4.06640625 C-0.15685547 5.30197266 -0.15685547 5.30197266 -0.6875 6.5625 C-1.05746094 7.44808594 -1.42742187 8.33367187 -1.80859375 9.24609375 C-3.50949789 13.17769183 -5.22877301 17.09953205 -7 21 C-7.33 21 -7.66 21 -8 21 C-7.85868946 12.52136736 -4.55396501 7.0271366 0 0 Z " fill="#C1C1C1" transform="translate(105,184)"/>
<path d="M0 0 C0.33 0 0.66 0 1 0 C1.48181362 2.97875968 1.96050857 5.95796749 2.4375 8.9375 C2.57220703 9.76830078 2.70691406 10.59910156 2.84570312 11.45507812 C3.72384059 16.95950075 4.42374897 22.45568182 5 28 C2 26 2 26 1.26953125 22.65625 C1.10160709 21.27263537 0.95012001 19.88695663 0.8125 18.5 C0.73209473 17.78328125 0.65168945 17.0665625 0.56884766 16.328125 C-0.00571595 10.87895888 -0.23705313 5.47856126 0 0 Z " fill="#B0B0B0" transform="translate(2,282)"/>
<path d="M0 0 C3.96565356 3.96565356 4.87780647 9.87532891 5.19140625 15.328125 C5.18797409 18.22486845 5.13423137 21.10656832 5 24 C4.67 24 4.34 24 4 24 C3.32338 21.31466436 2.65853879 18.627275 2 15.9375 C1.80921875 15.18533203 1.6184375 14.43316406 1.421875 13.65820312 C0.2858904 8.97226664 -0.20486266 4.82067454 0 0 Z " fill="#C4C4C4" transform="translate(382,107)"/>
<path d="M0 0 C0.66 0.33 1.32 0.66 2 1 C0.46620188 2.44589269 -1.07743855 3.88134804 -2.625 5.3125 C-3.48351562 6.11300781 -4.34203125 6.91351563 -5.2265625 7.73828125 C-8.02200966 10.01794872 -10.72420916 11.51580738 -14 13 C-14.66 12.34 -15.32 11.68 -16 11 C-15.26394531 10.54109375 -14.52789062 10.0821875 -13.76953125 9.609375 C-12.79371094 8.99578125 -11.81789063 8.3821875 -10.8125 7.75 C-9.84957031 7.14671875 -8.88664062 6.5434375 -7.89453125 5.921875 C-5.12594673 4.08362455 -2.56042049 2.11574051 0 0 Z " fill="#C4C4C4" transform="translate(377,328)"/>
<path d="M0 0 C-3.01431321 2.42285223 -6.05517439 4.12756366 -9.5625 5.75 C-10.51253906 6.19859375 -11.46257812 6.6471875 -12.44140625 7.109375 C-15 8 -15 8 -18 7 C-12.55555584 2.21548846 -7.36459875 -0.53887308 0 0 Z " fill="#C6C6C6" transform="translate(363,476)"/>
<path d="M0 0 C0.33 0 0.66 0 1 0 C1.7941888 6.0358349 -0.70318085 11.0687015 -4 16 C-4.99 16.33 -5.98 16.66 -7 17 C-5.24009216 11.08030998 -2.60305395 5.58365008 0 0 Z " fill="#ADADAD" transform="translate(478,351)"/>
<path d="M0 0 C0.33 0 0.66 0 1 0 C1.02710123 2.5625718 1.04688771 5.12485365 1.0625 7.6875 C1.07087891 8.40873047 1.07925781 9.12996094 1.08789062 9.87304688 C1.10543632 13.71555382 0.93524221 17.26639526 0 21 C-0.99 21.33 -1.98 21.66 -3 22 C-2.24984418 14.62346781 -1.16558465 7.32168224 0 0 Z " fill="#B7B7B7" transform="translate(497,283)"/>
<path d="M0 0 C0.66 0 1.32 0 2 0 C1.38379145 2.79387762 0.75750305 5.58480926 0.125 8.375 C-0.04902344 9.1690625 -0.22304687 9.963125 -0.40234375 10.78125 C-0.57636719 11.54179687 -0.75039062 12.30234375 -0.9296875 13.0859375 C-1.08679199 13.7876709 -1.24389648 14.4894043 -1.40576172 15.21240234 C-2 17 -2 17 -4 19 C-4.22577402 13.5814234 -3.46670113 9.22512279 -2 4 C-1.34 4 -0.68 4 0 4 C0 2.68 0 1.36 0 0 Z " fill="#C3C3C3" transform="translate(7,186)"/>
<path d="M0 0 C5.83028038 0.54973427 10.58290168 2.2453859 15.9375 4.5625 C16.71673828 4.89185547 17.49597656 5.22121094 18.29882812 5.56054688 C20.20235303 6.36633349 22.10163025 7.18214217 24 8 C20.44757118 9.18414294 19.30169438 8.69535532 15.8125 7.5625 C14.91144531 7.27503906 14.01039063 6.98757812 13.08203125 6.69140625 C12.05142578 6.34916016 12.05142578 6.34916016 11 6 C11 5.34 11 4.68 11 4 C7.37 3.01 3.74 2.02 0 1 C0 0.67 0 0.34 0 0 Z " fill="#A2A2A2" transform="translate(134,105)"/>
<path d="M0 0 C0.66 0.33 1.32 0.66 2 1 C1.67 1.66 1.34 2.32 1 3 C1.5775 3.226875 2.155 3.45375 2.75 3.6875 C5.70347142 5.41035833 7.14594785 7.12302253 9 10 C9.75 13.8125 9.75 13.8125 10 17 C9.56816406 16.4225 9.13632812 15.845 8.69140625 15.25 C7.62262138 13.8282446 6.54785631 12.41094766 5.46484375 11 C4.70880859 10.01 4.70880859 10.01 3.9375 9 C3.43089844 8.34 2.92429687 7.68 2.40234375 7 C1.04543236 5.0647949 -0.00223072 3.13875904 -1 1 C-0.67 0.67 -0.34 0.34 0 0 Z " fill="#CCCCCC" transform="translate(295,360)"/>
<path d="M0 0 C1.31354934 3.94064801 0.30975532 5.3016095 -1.3125 9.0625 C-1.98732422 10.65771484 -1.98732422 10.65771484 -2.67578125 12.28515625 C-4 15 -4 15 -6 17 C-6.68133894 10.1866106 -3.65642019 5.48463028 0 0 Z " fill="#C9C9C9" transform="translate(485,338)"/>
<path d="M0 0 C0.33 0 0.66 0 1 0 C1.66 6.6 2.32 13.2 3 20 C2.67 19.01 2.34 18.02 2 17 C1.34 17 0.68 17 0 17 C-1.11582647 11.69982429 -1.34568689 6.39881588 -1 1 C-0.67 0.67 -0.34 0.34 0 0 Z " fill="#B3B3B3" transform="translate(92,253)"/>
<path d="M0 0 C1.3399449 4.01983469 0.22741458 7.03774921 -0.8125 11 C-0.99103516 11.72445312 -1.16957031 12.44890625 -1.35351562 13.1953125 C-2.21801978 16.57842625 -3.04679245 19.07018868 -5 22 C-4.7219098 13.90757513 -3.48645046 7.32965398 0 0 Z " fill="#BDBDBD" transform="translate(14,162)"/>
<path d="M0 0 C-2.75545698 1.48663983 -5.27010688 2.4150229 -8.328125 3.0703125 C-9.12734375 3.24433594 -9.9265625 3.41835937 -10.75 3.59765625 C-11.575 3.77167969 -12.4 3.94570312 -13.25 4.125 C-14.09046875 4.30675781 -14.9309375 4.48851562 -15.796875 4.67578125 C-17.86355111 5.12199541 -19.93164277 5.56164445 -22 6 C-18.80859572 2.16095134 -16.4659324 1.36222046 -11.5625 0.75 C-10.45003906 0.60046875 -9.33757812 0.4509375 -8.19140625 0.296875 C-5.43300204 0.04027926 -2.76705803 -0.06206485 0 0 Z " fill="#A8A8A8" transform="translate(200,6)"/>
<path d="M0 0 C2.79024052 4.18536078 3.10154594 8.05850265 4 13 C1.36 15.31 -1.28 17.62 -4 20 C-4 19.01 -4 18.02 -4 17 C-2.7315625 15.7625 -2.7315625 15.7625 -1.4375 14.5 C0.59997044 12.24504676 0.98999846 11.25932558 1.109375 8.1640625 C0.84082902 5.41499974 0.48848986 2.71813172 0 0 Z " fill="#9D9D9D" transform="translate(113,161)"/>
<path d="M0 0 C-2.59925496 1.19942605 -5.20345507 2.38472821 -7.8125 3.5625 C-8.55048828 3.90474609 -9.28847656 4.24699219 -10.04882812 4.59960938 C-10.76103516 4.91865234 -11.47324219 5.23769531 -12.20703125 5.56640625 C-12.8616333 5.86490479 -13.51623535 6.16340332 -14.19067383 6.47094727 C-16 7 -16 7 -19 6 C-18.34 6 -17.68 6 -17 6 C-16.67 5.01 -16.34 4.02 -16 3 C-13.29037549 1.30276267 -10.53993493 0.5106791 -7.4375 -0.1875 C-6.67308594 -0.36667969 -5.90867188 -0.54585937 -5.12109375 -0.73046875 C-3 -1 -3 -1 0 0 Z " fill="#9F9F9F" transform="translate(162,18)"/>
<path d="M0 0 C1 2 1 2 0 5.1875 C-1.06966926 9.26561405 -0.83463678 11.91027978 0 16 C-1.32 15.67 -2.64 15.34 -4 15 C-5.15837626 10.94568308 -4.83691257 8.78187881 -3 5 C-2.34 5 -1.68 5 -1 5 C-0.67 3.35 -0.34 1.7 0 0 Z " fill="#B2B2B2" transform="translate(387,159)"/>
<path d="M0 0 C2.15377564 2.62198774 3.40072174 4.64404172 4 8 C4.66 8 5.32 8 6 8 C9.125 14.625 9.125 14.625 8 18 C5.0094251 16.50471255 4.68337712 14.29960967 3.4375 11.25 C3.00308594 10.20328125 2.56867188 9.1565625 2.12109375 8.078125 C1.13395341 5.36778846 0.46791484 2.83903384 0 0 Z " fill="#A3A3A3" transform="translate(476,144)"/>
<path d="M0 0 C0 3 0 3 -1.19335938 4.44213867 C-1.73798828 4.9291626 -2.28261719 5.41618652 -2.84375 5.91796875 C-3.72353516 6.71557617 -3.72353516 6.71557617 -4.62109375 7.52929688 C-5.24113281 8.07650391 -5.86117188 8.62371094 -6.5 9.1875 C-7.12003906 9.74630859 -7.74007813 10.30511719 -8.37890625 10.88085938 C-9.91268445 12.26125975 -11.45550825 13.63159728 -13 15 C-13 12 -13 12 -10.91796875 9.58984375 C-10.01691406 8.71457031 -9.11585938 7.83929688 -8.1875 6.9375 C-7.29417969 6.05964844 -6.40085937 5.18179687 -5.48046875 4.27734375 C-3 2 -3 2 0 0 Z " fill="#AEAEAE" transform="translate(441,413)"/>
<path d="M0 0 C3 2 3 2 3.68359375 3.734375 C4.08321159 6.59583606 4.09389763 9.361418 4.0625 12.25 C4.05347656 13.32765625 4.04445313 14.4053125 4.03515625 15.515625 C4.02355469 16.33546875 4.01195312 17.1553125 4 18 C3.67 18 3.34 18 3 18 C2.49490792 15.75113762 1.99610821 13.50086131 1.5 11.25 C1.2215625 9.99703125 0.943125 8.7440625 0.65625 7.453125 C0 4 0 4 0 0 Z " fill="#B5B5B5" transform="translate(492,188)"/>
<path d="M0 0 C5.28 0.33 10.56 0.66 16 1 C13.25881058 3.74118942 11.02577449 3.68514807 7.265625 4.04296875 C4.15598982 3.98399291 2.35640268 2.97633773 0 1 C0 0.67 0 0.34 0 0 Z " fill="#BFBFBF" transform="translate(168,487)"/>
<path d="M0 0 C4.81879617 2.00783174 6.80874465 5.39748375 9 10 C9.3125 13 9.3125 13 9 15 C6.55586611 11.91730861 4.66890476 8.71528889 2.8125 5.25 C2.28269531 4.26515625 1.75289063 3.2803125 1.20703125 2.265625 C0.80871094 1.51796875 0.41039062 0.7703125 0 0 Z " fill="#ABABAB" transform="translate(460,116)"/>
<path d="M0 0 C6.11774896 -0.49940808 9.02495953 0.75099398 14 4 C14 4.66 14 5.32 14 6 C9.27934033 4.45730076 4.58335908 2.92205381 0 1 C0 0.67 0 0.34 0 0 Z " fill="#AAAAAA" transform="translate(338,17)"/>
<path d="M0 0 C3.49258493 3.49258493 4.92091065 7.5500285 5.1875 12.4375 C5.125625 13.283125 5.06375 14.12875 5 15 C1.04397828 10.14488244 -0.29212746 6.28074033 0 0 Z " fill="#B4B4B4" transform="translate(100,292)"/>
<path d="M0 0 C6.75 0.875 6.75 0.875 9 2 C9 2.66 9 3.32 9 4 C10.65 4.33 12.3 4.66 14 5 C11.26980214 6.06528748 10.20701188 6.07998186 7.421875 5.00390625 C6.54015625 4.52824219 5.6584375 4.05257813 4.75 3.5625 C3.85796875 3.08941406 2.9659375 2.61632812 2.046875 2.12890625 C1.37140625 1.75636719 0.6959375 1.38382812 0 1 C0 0.67 0 0.34 0 0 Z " fill="#CECECE" transform="translate(134,396)"/>
<path d="M0 0 C1.95273962 2.92910944 2.75396363 5.08132291 3.6875 8.4375 C3.95949219 9.38496094 4.23148438 10.33242188 4.51171875 11.30859375 C4.99803744 13.98918237 4.89369149 15.46287583 4 18 C4 17.01 4 16.02 4 15 C3.34 15 2.68 15 2 15 C1.66223316 13.2508503 1.32996329 11.50063855 1 9.75 C0.814375 8.77546875 0.62875 7.8009375 0.4375 6.796875 C0 4 0 4 0 0 Z " fill="#A5A5A5" transform="translate(7,311)"/>
<path d="M0 0 C2.72138795 3.17495261 4.82820425 5.95197831 6 10 C5.67 10.99 5.34 11.98 5 13 C5 12.34 5 11.68 5 11 C4.34 11 3.68 11 3 11 C0.84694043 7.14243493 -0.39253254 4.44870215 0 0 Z " fill="#C2C2C2" transform="translate(99,388)"/>
<path d="M0 0 C1.23922223 3.71766668 0.57018942 5.43889537 -0.4375 9.1875 C-0.72496094 10.27417969 -1.01242188 11.36085938 -1.30859375 12.48046875 C-1.65083984 13.72763672 -1.65083984 13.72763672 -2 15 C-2.33 15 -2.66 15 -3 15 C-3.02705729 13.22925083 -3.04642195 11.45838289 -3.0625 9.6875 C-3.07410156 8.70136719 -3.08570313 7.71523438 -3.09765625 6.69921875 C-3 4 -3 4 -2 1 C-1.34 0.67 -0.68 0.34 0 0 Z " fill="#CDCDCD" transform="translate(193,379)"/>
<path d="M0 0 C0.66 0 1.32 0 2 0 C0.43358249 4.30764815 -1.68336156 8.06171464 -4 12 C-4.9435441 9.46100862 -5.16906025 8.39090725 -4.07421875 5.859375 C-3.61660156 5.16328125 -3.15898437 4.4671875 -2.6875 3.75 C-2.23761719 3.04359375 -1.78773437 2.3371875 -1.32421875 1.609375 C-0.88722656 1.07828125 -0.45023438 0.5471875 0 0 Z " fill="#AEAEAE" transform="translate(35,120)"/>
<path d="M0 0 C0.66 0.33 1.32 0.66 2 1 C-2.61176471 7.09411765 -2.61176471 7.09411765 -6 9 C-7.32 8.67 -8.64 8.34 -10 8 C-6.7 5.36 -3.4 2.72 0 0 Z " fill="#ABABAB" transform="translate(405,446)"/>
<path d="M0 0 C3 3 6 6 9 9 C8.67 9.66 8.34 10.32 8 11 C1.29540481 5.9059081 1.29540481 5.9059081 0.0625 2.125 C0.041875 1.42375 0.02125 0.7225 0 0 Z " fill="#ADADAD" transform="translate(53,405)"/>
<path d="M0 0 C4.55737263 0.43820891 7.57653445 0.85041169 11 4 C10.67 4.99 10.34 5.98 10 7 C8.33073546 6.02526874 6.66464358 5.04510211 5 4.0625 C4.071875 3.51722656 3.14375 2.97195313 2.1875 2.41015625 C1.465625 1.94480469 0.74375 1.47945313 0 1 C0 0.67 0 0.34 0 0 Z " fill="#CCCCCC" transform="translate(93,355)"/>
<path d="M0 0 C2.40034102 3.60051153 4.32187705 6.96144535 3.625 11.375 C3.41875 11.91125 3.2125 12.4475 3 13 C1 12 1 12 0.375 10.4375 C-0.16368951 6.93601819 -0.05903219 3.54193167 0 0 Z " fill="#CFCFCF" transform="translate(490,176)"/>
<path d="M0 0 C0.8971875 0.309375 0.8971875 0.309375 1.8125 0.625 C-3.20739102 4.74388494 -6.78608988 5.13711281 -13.1875 4.625 C-13.1875 4.295 -13.1875 3.965 -13.1875 3.625 C-11.3003125 3.191875 -11.3003125 3.191875 -9.375 2.75 C-5.99565481 1.97441258 -3.27532856 -0.5614849 0 0 Z " fill="#A5A5A5" transform="translate(321.1875,125.375)"/>
<path d="M0 0 C1.72945653 0.14235457 3.45855654 0.28904382 5.1875 0.4375 C6.63189453 0.55931641 6.63189453 0.55931641 8.10546875 0.68359375 C10.78649602 0.97666151 13.3662986 1.42703754 16 2 C16 2.33 16 2.66 16 3 C14.27119018 3.05449838 12.54187288 3.09301688 10.8125 3.125 C9.84957031 3.14820312 8.88664062 3.17140625 7.89453125 3.1953125 C4.87187222 2.9913544 2.73230015 2.26874632 0 1 C0 0.67 0 0.34 0 0 Z " fill="#9F9F9F" transform="translate(283,124)"/>
<path d="M0 0 C-0.66 0 -1.32 0 -2 0 C-2 0.66 -2 1.32 -2 2 C-3.28913487 2.67154933 -4.58140204 3.33708859 -5.875 4 C-6.59429687 4.37125 -7.31359375 4.7425 -8.0546875 5.125 C-10 6 -10 6 -12 6 C-11 3 -11 3 -9.2578125 1.796875 C-8.55398437 1.45140625 -7.85015625 1.1059375 -7.125 0.75 C-6.42632812 0.39421875 -5.72765625 0.0384375 -5.0078125 -0.328125 C-3 -1 -3 -1 0 0 Z " fill="#C1C1C1" transform="translate(145,24)"/>
<path d="M0 0 C4.99275057 1.27721526 7.57611908 3.17330957 11 7 C5.95904225 6.55520961 3.58884285 4.33845847 0 1 C0 0.67 0 0.34 0 0 Z " fill="#CCCCCC" transform="translate(87,443)"/>
<path d="M0 0 C1 3 1 3 -0.125 5.5 C-2.16131229 8.21508305 -4.00479488 9.46192169 -7 11 C-5.22054913 6.95579349 -2.60470327 3.53921513 0 0 Z " fill="#AAAAAA" transform="translate(457,390)"/>
<path d="M0 0 C0.33 0 0.66 0 1 0 C1 2.97 1 5.94 1 9 C-3.1077065 10.58706842 -4.59232396 11.10191901 -9 10 C-6.36 9.34 -3.72 8.68 -1 8 C-0.67 5.36 -0.34 2.72 0 0 Z " fill="#999999" transform="translate(189,387)"/>
<path d="M0 0 C2.38672669 2.96283313 4.7353371 5.94270509 7 9 C6.67 9.66 6.34 10.32 6 11 C1.9957657 7.50912907 0.37328935 5.35048061 0 0 Z " fill="#A8A8A8" transform="translate(34,377)"/>
<path d="M0 0 C1 2 1 2 0.546875 3.91015625 C0.28390625 4.62042969 0.0209375 5.33070313 -0.25 6.0625 C-0.62898437 7.13177734 -0.62898437 7.13177734 -1.015625 8.22265625 C-2 10 -2 10 -5 11 C-3.92289822 6.69159287 -2.96052484 3.36423277 0 0 Z " fill="#A9A9A9" transform="translate(197,369)"/>
<path d="M0 0 C0.33 0 0.66 0 1 0 C1.125 6.75 1.125 6.75 0 9 C-0.66 9 -1.32 9 -2 9 C-2.33 9.99 -2.66 10.98 -3 12 C-4 10 -4 10 -3.22265625 7.6171875 C-2.83980469 6.71226562 -2.45695312 5.80734375 -2.0625 4.875 C-1.68222656 3.96492188 -1.30195313 3.05484375 -0.91015625 2.1171875 C-0.60980469 1.41851562 -0.30945313 0.71984375 0 0 Z " fill="#A4A4A4" transform="translate(487,329)"/>
<path d="M0 0 C1 2 1 2 0.44140625 3.9453125 C0.15136719 4.66460937 -0.13867188 5.38390625 -0.4375 6.125 C-0.72496094 6.84945312 -1.01242188 7.57390625 -1.30859375 8.3203125 C-1.53675781 8.87460938 -1.76492187 9.42890625 -2 10 C-2.99 10 -3.98 10 -5 10 C-3.66511872 6.40608886 -2.03977277 3.24509304 0 0 Z " fill="#A9A9A9" transform="translate(105,184)"/>
<path d="M0 0 C0 3.60573896 -0.81707462 4.41336566 -3 7.1875 C-3.556875 7.90292969 -4.11375 8.61835938 -4.6875 9.35546875 C-5.120625 9.89816406 -5.55375 10.44085938 -6 11 C-7 9 -7 9 -6.375 6.625 C-4.74438603 3.5120097 -2.84002745 2.01791424 0 0 Z " fill="#DEDEDE" transform="translate(112,177)"/>
<path d="M0 0 C-0.33 0.66 -0.66 1.32 -1 2 C-4.01490557 3.00496852 -6.04181692 3.10335303 -9.1875 3.0625 C-10.53908203 3.04896484 -10.53908203 3.04896484 -11.91796875 3.03515625 C-12.60503906 3.02355469 -13.29210937 3.01195312 -14 3 C-14 2.67 -14 2.34 -14 2 C-4.58997722 -0.29612756 -4.58997722 -0.29612756 0 0 Z " fill="#979797" transform="translate(210,125)"/>
<path d="M0 0 C1.32 0.33 2.64 0.66 4 1 C1.69 2.65 -0.62 4.3 -3 6 C-3.66 5.67 -4.32 5.34 -5 5 C-2.75 2.4375 -2.75 2.4375 0 0 Z " fill="#C2C2C2" transform="translate(393,455)"/>
<path d="M0 0 C0.66 0.33 1.32 0.66 2 1 C-0.31 3.64 -2.62 6.28 -5 9 C-5.99 8.67 -6.98 8.34 -8 8 C-5.36 5.36 -2.72 2.72 0 0 Z " fill="#919191" transform="translate(424,429)"/>
<path d="M0 0 C1.48280196 0.78483659 2.9611498 1.57809334 4.4375 2.375 C5.67306641 3.03628906 5.67306641 3.03628906 6.93359375 3.7109375 C9 5 9 5 10 7 C2.18363463 5.08277831 2.18363463 5.08277831 0 2 C0 1.34 0 0.68 0 0 Z " fill="#D1D1D1" transform="translate(128,333)"/>
<path d="M0 0 C3.72114571 2.31537955 6.61229661 4.28579473 9 8 C4.75153925 7.52794881 2.73180712 5.11122478 0 2 C0 1.34 0 0.68 0 0 Z " fill="#C8C8C8" transform="translate(59,414)"/>
<path d="M0 0 C2.64465038 3.1254959 3.84414715 6.08788267 5 10 C2 9 2 9 0.8125 7.25 C-0.10819096 4.70039426 -0.14948718 2.69076919 0 0 Z " fill="#ABABAB" transform="translate(21,352)"/>
<path d="M0 0 C3.44216672 2.6598561 3.99504674 5.90288286 5 10 C4.01 9.67 3.02 9.34 2 9 C0.68964993 5.82757352 0 3.44118336 0 0 Z " fill="#A5A5A5" transform="translate(397,189)"/>
<path d="M0 0 C3.39417765 3.12621626 5.6062718 5.56541027 7 10 C4.625 8.9375 4.625 8.9375 2 7 C0.6875 3.3125 0.6875 3.3125 0 0 Z " fill="#9B9B9B" transform="translate(389,177)"/>
<path d="M0 0 C3.68851835 0.99689685 4.80574807 1.68919691 6.875 5 C7.24625 5.99 7.6175 6.98 8 8 C7.67 8.66 7.34 9.32 7 10 C5.82739389 8.71372289 4.6620717 7.42080217 3.5 6.125 C2.8503125 5.40570313 2.200625 4.68640625 1.53125 3.9453125 C0 2 0 2 0 0 Z " fill="#9C9C9C" transform="translate(438,86)"/>
<path d="M0 0 C2.86724686 0.57344937 3.8614515 0.8614515 6 3 C5.625 5.125 5.625 5.125 5 7 C0 1.125 0 1.125 0 0 Z " fill="#BBBBBB" transform="translate(66,422)"/>
<path d="M0 0 C0 4.38968456 -2.12805101 5.76905739 -5 9 C-5.33 7.68 -5.66 6.36 -6 5 C-4.02 3.35 -2.04 1.7 0 0 Z " fill="#D6D6D6" transform="translate(453,398)"/>
<path d="M0 0 C2.18975773 3.28463659 2.99806563 6.20696275 4 10 C3.01 10 2.02 10 1 10 C-0.1577506 6.52674819 -0.06866652 3.63932552 0 0 Z " fill="#A7A7A7" transform="translate(16,339)"/>
<path d="M0 0 C0.75 1.6875 0.75 1.6875 1 4 C-0.8125 6.75 -0.8125 6.75 -3 9 C-3.66 9 -4.32 9 -5 9 C-4.42647107 5.12867972 -2.51295648 2.91827204 0 0 Z " fill="#CBCBCB" transform="translate(385,318)"/>
<path d="M0 0 C0.66 0.33 1.32 0.66 2 1 C0.875 2.9375 0.875 2.9375 -1 5 C-4.1875 5.75 -4.1875 5.75 -7 6 C-4.74259377 3.66475218 -2.7194239 1.81294927 0 0 Z " fill="#9D9D9D" transform="translate(387,459)"/>
<path d="M0 0 C-0.66 0 -1.32 0 -2 0 C-2 0.66 -2 1.32 -2 2 C-4.31 2.33 -6.62 2.66 -9 3 C-9.33 2.34 -9.66 1.68 -10 1 C-3.375 -1.125 -3.375 -1.125 0 0 Z " fill="#C2C2C2" transform="translate(336,353)"/>
<path d="M0 0 C0.33 0 0.66 0 1 0 C0.88541307 1.43836751 0.75790884 2.87570966 0.625 4.3125 C0.55539062 5.11300781 0.48578125 5.91351563 0.4140625 6.73828125 C0 9 0 9 -2 12 C-2.28571429 3.42857143 -2.28571429 3.42857143 0 0 Z " fill="#8C8C8C" transform="translate(406,271)"/>
<path d="M0 0 C0.99 0.33 1.98 0.66 3 1 C-0.465 3.97 -0.465 3.97 -4 7 C-3.6875 4.625 -3.6875 4.625 -3 2 C-2.01 1.34 -1.02 0.68 0 0 Z " fill="#959595" transform="translate(74,71)"/>
<path d="M0 0 C0 0.99 0 1.98 0 3 C-2.70879335 4.35439668 -5.00933268 4.06501451 -8 4 C-2.7826087 0 -2.7826087 0 0 0 Z " fill="#A1A1A1" transform="translate(367,472)"/>
<path d="M0 0 C0.66 0 1.32 0 2 0 C0.90931332 3.77545388 0.0916909 6.47043472 -3 9 C-2.5020163 5.26512223 -2.12508244 3.18762365 0 0 Z " fill="#B3B3B3" transform="translate(41,110)"/>
<path d="M0 0 C0.99 0.33 1.98 0.66 3 1 C1.35 2.65 -0.3 4.3 -2 6 C-2.99 5.67 -3.98 5.34 -5 5 C-3.35 3.35 -1.7 1.7 0 0 Z " fill="#B4B4B4" transform="translate(80,65)"/>
<path d="M0 0 C0 0.99 0 1.98 0 3 C-1.8125 4.75 -1.8125 4.75 -4 6 C-4.99 5.67 -5.98 5.34 -7 5 C-2.25 0 -2.25 0 0 0 Z " fill="#CCCCCC" transform="translate(88,59)"/>
<path d="M0 0 C1.5 1.375 1.5 1.375 3 3 C3 3.66 3 4.32 3 5 C4.32 5.66 5.64 6.32 7 7 C1.125 6.125 1.125 6.125 0 5 C-0.04063832 3.33382885 -0.042721 1.66611905 0 0 Z " fill="#9D9D9D" transform="translate(313,481)"/>
<path d="M0 0 C3.465 1.98 3.465 1.98 7 4 C5.1875 4.625 5.1875 4.625 3 5 C2.01 4.34 1.02 3.68 0 3 C0 2.01 0 1.02 0 0 Z " fill="#C3C3C3" transform="translate(73,360)"/>
<path d="M0 0 C1.98 0 3.96 0 6 0 C5.2575 0.680625 5.2575 0.680625 4.5 1.375 C2.77390663 2.87635519 2.77390663 2.87635519 3 5 C2.01 5 1.02 5 0 5 C0 3.35 0 1.7 0 0 Z " fill="#BFBFBF" transform="translate(66,350)"/>
<path d="M0 0 C0 0.66 0 1.32 0 2 C-3.465 3.485 -3.465 3.485 -7 5 C-7 4.01 -7 3.02 -7 2 C-4.35261084 0.5393715 -3.10551666 0 0 0 Z " fill="#B4B4B4" transform="translate(363,340)"/>
<path d="M0 0 C0.99 0 1.98 0 3 0 C1.75453595 3.73639216 0.36595047 4.18756513 -3 6 C-2.42655063 3.13275314 -2.1385485 2.1385485 0 0 Z " fill="#B5B5B5" transform="translate(91,55)"/>
<path d="M0 0 C0 0.66 0 1.32 0 2 C-1.98 2.99 -3.96 3.98 -6 5 C-6.66 4.34 -7.32 3.68 -8 3 C-3.375 0 -3.375 0 0 0 Z " fill="#C1C1C1" transform="translate(115,40)"/>
</svg>
