<?xml version="1.0" encoding="UTF-8"?>
<svg version="1.1" xmlns="http://www.w3.org/2000/svg" width="1024" height="1024">
<path d="M0 0 C1.07053116 -0.00720377 1.07053116 -0.00720377 2.16268921 -0.01455307 C7.55636933 -0.05038101 12.94996393 -0.06605708 18.34375 -0.07421875 C19.13314972 -0.0758112 19.92254944 -0.07740364 20.73587036 -0.07904434 C42.87490314 -0.11704241 64.67933478 0.18890859 86.58691406 3.72558594 C89.73818435 4.22166297 92.88631807 4.62663724 96.0546875 4.99609375 C106.93340835 6.28095319 117.41969393 8.38246077 128.0390625 11.05859375 C132.05598334 12.06715084 136.0793131 12.8777982 140.15625 13.61328125 C150.92008266 15.69507746 161.3622099 19.0641249 171.84375 22.23828125 C173.28505417 22.66700999 174.72644802 23.09543746 176.16796875 23.5234375 C184.02205092 25.90468543 191.74962624 28.57859818 199.46875 31.36328125 C200.40605957 31.70029053 201.34336914 32.0372998 202.30908203 32.38452148 C206.98262582 34.09302433 211.42200653 35.93844746 215.84375 38.23828125 C217.27323319 38.82085339 218.71078988 39.38406402 220.15625 39.92578125 C231.68493948 44.46791154 242.78697991 50.1396397 253.83984375 55.72265625 C256.20663869 56.91682587 258.58332782 58.08230664 260.96875 59.23828125 C266.41328124 61.96054687 271.60541921 65.14437194 276.84375 68.23828125 C278.98892128 69.48941708 281.1347369 70.73944891 283.28125 71.98828125 C289.28770888 75.48591989 295.18689107 79.0692385 300.96875 82.92578125 C301.62891113 83.36567383 302.28907227 83.80556641 302.96923828 84.25878906 C307.84548875 87.52695208 312.60806661 90.92738665 317.328125 94.41796875 C320.53157115 96.73599034 323.82965393 98.88766489 327.1640625 101.01171875 C328.84375 102.23828125 328.84375 102.23828125 329.84375 104.23828125 C331.50223177 105.25179789 333.17040961 106.2494892 334.84375 107.23828125 C336.52340257 108.55521815 338.18857683 109.89070664 339.84375 111.23828125 C340.67132812 111.90085937 341.49890625 112.5634375 342.3515625 113.24609375 C348.20856031 117.98414273 353.84614488 122.89557681 359.3828125 128.00390625 C361.38734676 129.82389608 363.41653417 131.55047988 365.53125 133.23828125 C366.294375 133.89828125 367.0575 134.55828125 367.84375 135.23828125 C367.84375 135.89828125 367.84375 136.55828125 367.84375 137.23828125 C368.42253906 137.49996094 369.00132812 137.76164063 369.59765625 138.03125 C377.237492 142.1368313 383.50669582 149.56696353 388.84375 156.23828125 C389.730625 157.10453125 390.6175 157.97078125 391.53125 158.86328125 C393.84375 161.23828125 393.84375 161.23828125 394.84375 164.23828125 C396.17245001 164.91413515 397.50663166 165.57923894 398.84375 166.23828125 C404.69566092 171.85110632 409.62503291 178.38439017 414.48095703 184.85864258 C416.46658361 187.49980902 418.45176818 189.95925413 420.84375 192.23828125 C421.8986988 193.39295158 422.94029533 194.55995127 423.96875 195.73828125 C424.74605469 196.62 424.74605469 196.62 425.5390625 197.51953125 C426.84375 199.23828125 426.84375 199.23828125 427.84375 202.23828125 C428.58882812 202.97691406 429.33390625 203.71554688 430.1015625 204.4765625 C433.16657194 207.56340249 435.37822088 210.78356996 437.71875 214.42578125 C438.59282518 215.76232403 439.46782845 217.09826029 440.34375 218.43359375 C440.97990234 219.4066748 440.97990234 219.4066748 441.62890625 220.39941406 C443.81063427 223.7018207 446.10181504 226.92606595 448.3828125 230.16015625 C454.04517761 238.21464352 458.90517356 246.7285828 463.84375 255.23828125 C464.34213379 256.09317139 464.34213379 256.09317139 464.85058594 256.96533203 C469.48236861 264.91856117 473.79573737 272.96978427 477.84375 281.23828125 C478.47623165 282.49821688 479.11043868 283.75728742 479.74609375 285.015625 C483.10081421 291.65930301 486.410566 298.3229847 489.59375 305.05078125 C490.12484375 306.17097656 490.6559375 307.29117187 491.203125 308.4453125 C492.94337669 312.3205559 494.35702587 316.30211469 495.78613281 320.30053711 C496.84728525 323.24810111 497.94778815 326.17777363 499.0625 329.10546875 C502.97613571 339.40148422 506.85728002 349.62920217 509.84375 360.23828125 C510.15570312 361.32367188 510.46765625 362.4090625 510.7890625 363.52734375 C511.45604166 365.85389311 512.11741295 368.18205677 512.7734375 370.51171875 C513.52579632 373.13124545 514.29794848 375.73632944 515.1015625 378.33984375 C517.59873101 386.47952655 519.61226973 394.47289426 521.04980469 402.87451172 C521.68847498 406.49593657 522.45388402 410.07692929 523.25590515 413.66516113 C525.68500188 424.62441953 527.21720673 435.59789197 528.53125 446.73828125 C528.74472654 448.48576472 528.95891775 450.23316104 529.17382812 451.98046875 C529.75209842 456.7308834 530.32653456 461.48077787 530.84375 466.23828125 C530.93586258 467.05800415 531.02797516 467.87772705 531.12287903 468.72229004 C531.9340556 476.60851375 532.04085339 484.47234391 532.08203125 492.39453125 C532.08923502 493.46506241 532.08923502 493.46506241 532.09658432 494.55722046 C532.13241226 499.95090058 532.14808833 505.34449518 532.15625 510.73828125 C532.15863867 511.92238083 532.15863867 511.92238083 532.16107559 513.13040161 C532.19907366 535.26943439 531.89312266 557.07386603 528.35644531 578.98144531 C527.86036828 582.1327156 527.45539401 585.28084932 527.0859375 588.44921875 C525.80107806 599.3279396 523.69957048 609.81422518 521.0234375 620.43359375 C520.01488041 624.45051459 519.20423305 628.47384435 518.46875 632.55078125 C516.56984836 642.36896585 513.57910116 651.89660159 510.68408203 661.45898438 C509.96546214 663.83573301 509.25930164 666.21558875 508.55859375 668.59765625 C505.46857967 678.86278777 501.69842199 688.82937318 497.79296875 698.80810547 C496.9566181 700.94931802 496.13229794 703.09460186 495.3125 705.2421875 C489.8466458 719.31676205 483.12808713 732.83707617 476.32421875 746.3046875 C475.14167033 748.64794307 473.98840531 751.00152408 472.84375 753.36328125 C468.38555689 762.26077682 462.98767654 770.68983536 457.75 779.140625 C456.06127579 781.88480185 454.41524671 784.648856 452.78125 787.42578125 C450.32905632 791.52369849 447.67901703 795.42958104 444.90625 799.31640625 C443.27688158 801.62467818 441.67776141 803.94592629 440.09375 806.28515625 C439.6093042 806.99849121 439.1248584 807.71182617 438.62573242 808.44677734 C437.66433745 809.86419202 436.7060368 811.28371168 435.7512207 812.70556641 C433.35113143 816.23249262 430.94886405 819.28463618 427.84375 822.23828125 C426.82508771 823.89360748 425.82564187 825.56088263 424.84375 827.23828125 C423.52620182 828.91745436 422.19067756 830.58258149 420.84375 832.23828125 C420.18117188 833.06585937 419.51859375 833.8934375 418.8359375 834.74609375 C414.09788852 840.60309156 409.18645444 846.24067613 404.078125 851.77734375 C402.25813517 853.78187801 400.53155137 855.81106542 398.84375 857.92578125 C397.85375 859.07046875 397.85375 859.07046875 396.84375 860.23828125 C396.18375 860.23828125 395.52375 860.23828125 394.84375 860.23828125 C394.46669922 861.09099609 394.46669922 861.09099609 394.08203125 861.9609375 C388.801962 871.67160114 378.31841595 880.35355263 369.84375 887.23828125 C369.18375 887.23828125 368.52375 887.23828125 367.84375 887.23828125 C367.57965332 887.83592285 367.31555664 888.43356445 367.04345703 889.04931641 C365.79293982 891.33098863 364.61314761 892.57951598 362.6484375 894.26171875 C362.0184082 894.80521973 361.38837891 895.3487207 360.73925781 895.90869141 C359.73910645 896.75246338 359.73910645 896.75246338 358.71875 897.61328125 C358.04166992 898.19255371 357.36458984 898.77182617 356.66699219 899.36865234 C352.6741315 902.76248808 348.64042791 906.06225228 344.359375 909.08984375 C342.69546482 910.35064167 341.30408842 911.74783276 339.84375 913.23828125 C338.68907967 914.29323005 337.52207998 915.33482658 336.34375 916.36328125 C335.7559375 916.88148438 335.168125 917.3996875 334.5625 917.93359375 C332.84375 919.23828125 332.84375 919.23828125 329.84375 920.23828125 C329.10511719 920.98335937 328.36648438 921.7284375 327.60546875 922.49609375 C324.51862876 925.56110319 321.29846129 927.77275213 317.65625 930.11328125 C316.31970722 930.98735643 314.98377096 931.8623597 313.6484375 932.73828125 C312.67535645 933.37443359 312.67535645 933.37443359 311.68261719 934.0234375 C309.1831168 935.67472719 306.72936603 937.38695019 304.28125 939.11328125 C299.23201261 942.67107723 294.19028229 946.09170101 288.80078125 949.12109375 C286.60500371 950.37457155 284.44397718 951.67861012 282.28125 952.98828125 C271.99218541 959.17108789 261.62655745 964.95933625 250.84375 970.23828125 C249.58381437 970.8707629 248.32474383 971.50496993 247.06640625 972.140625 C222.12865143 984.73289631 222.12865143 984.73289631 212.8515625 987.57421875 C210.76285728 988.26503565 208.83602964 989.1190307 206.84375 990.05078125 C191.23369129 997.17355279 174.30508607 1001.59794577 157.84375 1006.23828125 C156.39052331 1006.65719948 154.9374027 1007.07648584 153.484375 1007.49609375 C145.28848649 1009.84356246 137.13617435 1011.91139377 128.75 1013.48828125 C125.90344462 1014.03481988 123.07939315 1014.61421941 120.25 1015.23828125 C119.44618896 1015.41415771 118.64237793 1015.59003418 117.81420898 1015.77124023 C116.28911475 1016.10662799 114.76503791 1016.44670529 113.24243164 1016.79321289 C107.54493099 1018.03278637 101.81486618 1018.78847413 96.02970886 1019.47605896 C91.69643375 1019.99368783 87.39486228 1020.61086782 83.0859375 1021.30859375 C41.34027299 1027.55891147 -5.22638343 1027.47851416 -46.89941406 1020.75097656 C-50.05068435 1020.25489953 -53.19881807 1019.84992526 -56.3671875 1019.48046875 C-67.21460529 1018.19882484 -77.67983685 1016.12561104 -88.26171875 1013.421875 C-91.64403638 1012.5687146 -95.01527223 1011.88648774 -98.453125 1011.296875 C-104.80840905 1010.17975048 -110.99433241 1008.5512589 -117.21875 1006.86328125 C-118.32541016 1006.57195313 -119.43207031 1006.280625 -120.57226562 1005.98046875 C-126.5612283 1004.36737544 -132.28123671 1002.50670439 -138.00463867 1000.11767578 C-140.71579253 999.00958816 -143.46663536 998.16855247 -146.28125 997.36328125 C-153.37452222 995.23196941 -160.26518413 992.67971883 -167.16845703 990.00732422 C-169.05637607 989.27692076 -170.94801591 988.55615616 -172.83984375 987.8359375 C-187.02306107 982.32448276 -200.64984213 975.57576707 -214.22265625 968.71875 C-216.56591182 967.53620158 -218.91949283 966.38293656 -221.28125 965.23828125 C-226.72578124 962.51601563 -231.91791921 959.33219056 -237.15625 956.23828125 C-239.30142128 954.98714542 -241.4472369 953.73711359 -243.59375 952.48828125 C-249.60020888 948.99064261 -255.49939107 945.407324 -261.28125 941.55078125 C-261.94141113 941.11088867 -262.60157227 940.67099609 -263.28173828 940.21777344 C-268.15798875 936.94961042 -272.92056661 933.54917585 -277.640625 930.05859375 C-280.84407115 927.74057216 -284.14215393 925.58889761 -287.4765625 923.46484375 C-289.15625 922.23828125 -289.15625 922.23828125 -290.15625 920.23828125 C-291.81473177 919.22476461 -293.48290961 918.2270733 -295.15625 917.23828125 C-296.83590257 915.92134435 -298.50107683 914.58585586 -300.15625 913.23828125 C-300.98382813 912.57570313 -301.81140625 911.913125 -302.6640625 911.23046875 C-308.52106031 906.49241977 -314.15864488 901.58098569 -319.6953125 896.47265625 C-321.69984676 894.65266642 -323.72903417 892.92608262 -325.84375 891.23828125 C-326.606875 890.57828125 -327.37 889.91828125 -328.15625 889.23828125 C-328.15625 888.57828125 -328.15625 887.91828125 -328.15625 887.23828125 C-328.878125 887.01140625 -329.6 886.78453125 -330.34375 886.55078125 C-334.86375145 884.44144724 -337.53955155 880.99373685 -340.65625 877.17578125 C-342.97851975 874.25258138 -342.97851975 874.25258138 -345.53125 872.36328125 C-349.18097878 869.4087389 -352.33460724 865.99505058 -355.15625 862.23828125 C-355.15625 861.57828125 -355.15625 860.91828125 -355.15625 860.23828125 C-355.7538916 859.97418457 -356.3515332 859.71008789 -356.96728516 859.43798828 C-359.24895738 858.18747107 -360.49748473 857.00767886 -362.1796875 855.04296875 C-362.99493896 854.0979248 -362.99493896 854.0979248 -363.82666016 853.13378906 C-364.67043213 852.1336377 -364.67043213 852.1336377 -365.53125 851.11328125 C-366.11052246 850.43620117 -366.68979492 849.75912109 -367.28662109 849.06152344 C-370.68045683 845.06866275 -373.98022103 841.03495916 -377.0078125 836.75390625 C-378.26861042 835.08999607 -379.66580151 833.69861967 -381.15625 832.23828125 C-382.2111988 831.08361092 -383.25279533 829.91661123 -384.28125 828.73828125 C-384.79945313 828.15046875 -385.31765625 827.56265625 -385.8515625 826.95703125 C-387.15625 825.23828125 -387.15625 825.23828125 -388.15625 822.23828125 C-388.90132813 821.49964844 -389.64640625 820.76101563 -390.4140625 820 C-393.47907194 816.91316001 -395.69072088 813.69299254 -398.03125 810.05078125 C-398.90532518 808.71423847 -399.78032845 807.37830221 -400.65625 806.04296875 C-401.08035156 805.39424805 -401.50445312 804.74552734 -401.94140625 804.07714844 C-404.12313427 800.7747418 -406.41431504 797.55049655 -408.6953125 794.31640625 C-414.35767761 786.26191898 -419.21767356 777.7479797 -424.15625 769.23828125 C-424.65463379 768.38339111 -424.65463379 768.38339111 -425.16308594 767.51123047 C-429.79486861 759.55800133 -434.10823737 751.50677823 -438.15625 743.23828125 C-438.78873165 741.97834562 -439.42293868 740.71927508 -440.05859375 739.4609375 C-452.65086506 714.52318268 -452.65086506 714.52318268 -455.4921875 705.24609375 C-456.1830044 703.15738853 -457.03699945 701.23056089 -457.96875 699.23828125 C-465.09152154 683.62822254 -469.51591452 666.69961732 -474.15625 650.23828125 C-474.57516823 648.78505456 -474.99445459 647.33193395 -475.4140625 645.87890625 C-477.76153121 637.68301774 -479.82936252 629.5307056 -481.40625 621.14453125 C-481.95278863 618.29797587 -482.53218816 615.4739244 -483.15625 612.64453125 C-483.33212646 611.84072021 -483.50800293 611.03690918 -483.68920898 610.20874023 C-484.02459674 608.683646 -484.36467404 607.15956916 -484.71118164 605.63696289 C-485.95075512 599.93946224 -486.70644288 594.20939743 -487.39402771 588.42424011 C-487.91165658 584.090965 -488.52883657 579.78939353 -489.2265625 575.48046875 C-495.47688022 533.73480424 -495.39648291 487.16814782 -488.66894531 445.49511719 C-488.17286828 442.3438469 -487.76789401 439.19571318 -487.3984375 436.02734375 C-486.11679359 425.17992596 -484.04357979 414.7146944 -481.33984375 404.1328125 C-480.48668335 400.75049487 -479.80445649 397.37925902 -479.21484375 393.94140625 C-478.09771923 387.5861222 -476.46922765 381.40019884 -474.78125 375.17578125 C-474.48992187 374.06912109 -474.19859375 372.96246094 -473.8984375 371.82226562 C-472.28534419 365.83330295 -470.42467314 360.11329454 -468.03564453 354.38989258 C-466.92755691 351.67873872 -466.08652122 348.92789589 -465.28125 346.11328125 C-463.14993816 339.02000903 -460.59768758 332.12934712 -457.92529297 325.22607422 C-457.19488951 323.33815518 -456.47412491 321.44651534 -455.75390625 319.5546875 C-450.24138902 305.36873596 -443.49101644 291.73954837 -436.6328125 278.1640625 C-435.47249005 275.86490504 -434.34100508 273.55598195 -433.21875 271.23828125 C-428.41538275 261.63154674 -422.72179484 252.4156841 -417.15625 243.23828125 C-416.7025 242.46871094 -416.24875 241.69914063 -415.78125 240.90625 C-413.75861724 237.58543708 -411.62612986 234.34769787 -409.46875 231.11328125 C-409.02885742 230.45312012 -408.58896484 229.79295898 -408.13574219 229.11279297 C-404.86757917 224.2365425 -401.4671446 219.47396464 -397.9765625 214.75390625 C-395.65854091 211.5504601 -393.50686636 208.25237732 -391.3828125 204.91796875 C-390.15625 203.23828125 -390.15625 203.23828125 -388.15625 202.23828125 C-387.14273336 200.57979948 -386.14504205 198.91162164 -385.15625 197.23828125 C-383.83243483 195.56404442 -382.50048339 193.8961691 -381.15625 192.23828125 C-380.82625 191.57828125 -380.49625 190.91828125 -380.15625 190.23828125 C-379.49625 190.23828125 -378.83625 190.23828125 -378.15625 190.23828125 C-377.88458008 189.64893799 -377.61291016 189.05959473 -377.33300781 188.45239258 C-376.17720168 186.27770257 -374.95153662 184.65505637 -373.328125 182.8125 C-372.77511719 182.18021484 -372.22210938 181.54792969 -371.65234375 180.89648438 C-371.07613281 180.24615234 -370.49992187 179.59582031 -369.90625 178.92578125 C-368.77586209 177.63817847 -367.64565296 176.3504187 -366.515625 175.0625 C-365.95939453 174.4339209 -365.40316406 173.8053418 -364.83007812 173.15771484 C-363.69185134 171.85247287 -362.57123981 170.53170391 -361.46679688 169.19775391 C-360.93634766 168.55757324 -360.40589844 167.91739258 -359.859375 167.2578125 C-359.38661133 166.67749268 -358.91384766 166.09717285 -358.42675781 165.49926758 C-357.15625 164.23828125 -357.15625 164.23828125 -355.15625 164.23828125 C-354.89457031 163.65949219 -354.63289062 163.08070313 -354.36328125 162.484375 C-350.25769995 154.84453925 -342.82756772 148.57533543 -336.15625 143.23828125 C-335.29 142.35140625 -334.42375 141.46453125 -333.53125 140.55078125 C-331.15625 138.23828125 -331.15625 138.23828125 -328.15625 137.23828125 C-327.46221839 135.91898509 -326.7980864 134.58374335 -326.15625 133.23828125 C-324.66333008 131.68603516 -324.66333008 131.68603516 -322.92578125 130.21484375 C-321.96768555 129.395 -321.96768555 129.395 -320.99023438 128.55859375 C-320.32314453 127.99914062 -319.65605469 127.4396875 -318.96875 126.86328125 C-318.32099609 126.3115625 -317.67324219 125.75984375 -317.00585938 125.19140625 C-315.70733399 124.08616786 -314.40542643 122.98489031 -313.10009766 121.88769531 C-311.78061148 120.76807102 -310.47327483 119.63400073 -309.17724609 118.48730469 C-308.55543457 117.93848633 -307.93362305 117.38966797 -307.29296875 116.82421875 C-306.73697998 116.32712402 -306.18099121 115.8300293 -305.6081543 115.31787109 C-304.15625 114.23828125 -304.15625 114.23828125 -302.15625 114.23828125 C-302.15625 113.57828125 -302.15625 112.91828125 -302.15625 112.23828125 C-300.17678408 110.87464917 -298.1743255 109.54409481 -296.15625 108.23828125 C-295.599375 107.68140625 -295.0425 107.12453125 -294.46875 106.55078125 C-293.15625 105.23828125 -293.15625 105.23828125 -290.15625 104.23828125 C-289.41761719 103.49320312 -288.67898438 102.748125 -287.91796875 101.98046875 C-284.83112876 98.91545931 -281.61096129 96.70381037 -277.96875 94.36328125 C-276.63220722 93.48920607 -275.29627096 92.6142028 -273.9609375 91.73828125 C-273.3122168 91.31417969 -272.66349609 90.89007813 -271.99511719 90.453125 C-268.69271055 88.27139698 -265.4684653 85.98021621 -262.234375 83.69921875 C-254.25351308 78.08861281 -245.82057073 73.29747659 -237.36914062 68.44140625 C-232.81945084 65.81672465 -228.33016291 63.13057323 -223.91357422 60.28686523 C-221.13305642 58.62774826 -218.13905859 57.48563757 -215.15625 56.23828125 C-213.45318337 55.29721311 -211.78435657 54.31671384 -210.125 53.30078125 C-207.87997613 52.08918106 -205.55803275 51.12430404 -203.20849609 50.13525391 C-200.05653632 48.75763075 -196.97969582 47.23120348 -193.88818359 45.72387695 C-184.81288727 41.31072984 -175.74372358 37.33728812 -166.23095703 33.97998047 C-163.94583385 33.16305834 -161.67392461 32.31477474 -159.40234375 31.4609375 C-147.04355545 26.82286798 -134.59045557 22.88702096 -121.8828125 19.30859375 C-119.2632858 18.55623493 -116.65820181 17.78408277 -114.0546875 16.98046875 C-105.9150047 14.48330024 -97.92163699 12.46976152 -89.52001953 11.03222656 C-85.89859468 10.39355627 -82.31760196 9.62814723 -78.72937012 8.8261261 C-67.77011172 6.39702937 -56.79663928 4.86482452 -45.65625 3.55078125 C-43.90876653 3.33730471 -42.16137021 3.1231135 -40.4140625 2.90820312 C-35.66364785 2.32993283 -30.91375338 1.75549669 -26.15625 1.23828125 C-25.3365271 1.14616867 -24.5168042 1.05405609 -23.67224121 0.95915222 C-15.7860175 0.14797565 -7.92218734 0.04117786 0 0 Z M-190.15625 256.23828125 C-190.15625 256.89828125 -190.15625 257.55828125 -190.15625 258.23828125 C-190.74664062 258.50640625 -191.33703125 258.77453125 -191.9453125 259.05078125 C-200.40037898 263.59201837 -206.14996628 273.39009247 -209.15625 282.23828125 C-211.77287265 296.13804745 -211.66790266 311.03184568 -204.15625 323.23828125 C-203.45338697 324.89000937 -202.76969757 326.55130043 -202.15625 328.23828125 C-201.49625 328.23828125 -200.83625 328.23828125 -200.15625 328.23828125 C-199.95 328.77453125 -199.74375 329.31078125 -199.53125 329.86328125 C-197.62374574 333.15806134 -195.10805616 335.83191753 -192.15625 338.23828125 C-191.49625 338.23828125 -190.83625 338.23828125 -190.15625 338.23828125 C-190.15625 338.89828125 -190.15625 339.55828125 -190.15625 340.23828125 C-174.28190012 348.65956757 -158.61264351 351.30512144 -140.71875 347.42578125 C-137.26076803 346.27312059 -134.20404624 344.88635151 -131.015625 343.140625 C-129.08108516 342.2018042 -127.25359281 341.68837473 -125.15625 341.23828125 C-125.15625 340.57828125 -125.15625 339.91828125 -125.15625 339.23828125 C-124.62 339.01140625 -124.08375 338.78453125 -123.53125 338.55078125 C-114.08926264 333.33284087 -107.60964654 323.19788024 -104.46875 313.0078125 C-101.13051784 298.79714364 -102.46815861 283.97632382 -109.90625 271.36328125 C-117.91648866 259.31900543 -128.44770506 251.36699017 -142.71875 248.23828125 C-159.67971702 245.54273025 -175.16974289 247.6147604 -190.15625 256.23828125 Z M60.16796875 425.23828125 C56.00936798 430.04052221 56.00936798 430.04052221 52.8515625 435.4921875 C51.84375 437.23828125 51.84375 437.23828125 49.78076172 437.84741211 C49.14154785 437.97639893 48.50233398 438.10538574 47.84375 438.23828125 C47.7936377 437.44357422 47.74352539 436.64886719 47.69189453 435.83007812 C48.45894323 412.55076539 48.45894323 412.55076539 42.84375 392.23828125 C40.1048658 392.14311914 37.39127059 392.11273531 34.65209961 392.12475586 C33.79363937 392.12460983 32.93517914 392.12446381 32.05070496 392.12431335 C29.19914262 392.12501278 26.34764475 392.13280655 23.49609375 392.140625 C21.52454158 392.14248907 19.55298895 392.14391303 17.58143616 392.14491272 C12.38148733 392.14873874 7.18156625 392.15856973 1.98162842 392.1696167 C-3.32018661 392.17982903 -8.6220061 392.18440996 -13.92382812 392.18945312 C-24.33464763 392.20019192 -34.74544651 392.21726934 -45.15625 392.23828125 C-45.16161304 395.45670508 -45.16485503 398.67512775 -45.16772461 401.89355469 C-45.16926292 402.80124603 -45.17080124 403.70893738 -45.17238617 404.64413452 C-45.17579457 409.73991115 -45.13238925 414.81704546 -44.85557556 419.90655899 C-44.19120169 432.44243892 -43.90562982 444.98773468 -43.64086914 457.53710938 C-43.61902561 458.56922074 -43.59718209 459.60133211 -43.57467663 460.66471958 C-43.0457703 486.2303352 -42.93654294 511.79596829 -42.85292697 537.36624336 C-42.832835 543.26456028 -42.8088705 549.1628607 -42.78500474 555.06116337 C-42.73803938 566.69782857 -42.69459715 578.33450388 -42.65356445 589.97119141 C-42.6138379 601.23519669 -42.5723313 612.49919325 -42.52856445 623.76318359 C-42.52584018 624.46446481 -42.52311591 625.16574602 -42.52030908 625.88827819 C-42.50662359 629.40848087 -42.49290451 632.92868343 -42.47916877 636.44888592 C-42.36632853 665.37866613 -42.25997098 694.30846673 -42.15625 723.23828125 C-8.82625 723.23828125 24.50375 723.23828125 58.84375 723.23828125 C58.89273438 708.8678125 58.94171875 694.49734375 58.9921875 679.69140625 C59.02757404 670.58593149 59.06345397 661.4804631 59.1015625 652.375 C59.16195431 637.92335461 59.22033532 623.47172119 59.265625 609.02001953 C59.29862046 598.49429887 59.33849327 587.96863028 59.38654006 577.44296718 C59.41173 571.87245468 59.43353331 566.30197638 59.44709396 560.73142242 C59.45998259 555.48164182 59.48210961 550.23197898 59.51113319 544.98226357 C59.52015602 543.06192363 59.52588673 541.14156477 59.52796364 539.22120476 C59.54365345 526.91077937 59.56338253 514.85819407 64.34375 503.30078125 C64.7665625 502.26050781 65.189375 501.22023438 65.625 500.1484375 C66.22828125 498.70791016 66.22828125 498.70791016 66.84375 497.23828125 C67.5127541 495.57255146 68.18026217 493.90621594 68.84375 492.23828125 C69.50375 492.23828125 70.16375 492.23828125 70.84375 492.23828125 C71.215 490.81515625 71.215 490.81515625 71.59375 489.36328125 C73.03696293 485.75524893 73.46438338 485.68658123 76.84375 484.23828125 C77.58625 483.49578125 78.32875 482.75328125 79.09375 481.98828125 C90.11519153 470.96683972 103.76246921 466.97648935 119.11108398 466.91699219 C130.78307228 467.10105764 143.32035348 471.24568535 152.0546875 479.2421875 C169.54036228 498.75131373 169.96868266 526.42902807 170.04907227 551.13378906 C170.05866883 553.01731065 170.06867991 554.90083016 170.07907104 556.78434753 C170.10593367 561.86404006 170.12704328 566.94374171 170.14707303 572.02346516 C170.16904859 577.34457847 170.19638029 582.6656643 170.22312927 587.98675537 C170.27290059 598.04801695 170.31789668 608.10929392 170.36115164 618.17058539 C170.4199259 631.77700216 170.48612848 645.38338268 170.55190182 658.98976707 C170.65523287 680.40591399 170.7486838 701.82209236 170.84375 723.23828125 C204.17375 723.23828125 237.50375 723.23828125 271.84375 723.23828125 C271.93126602 685.83790007 271.93126602 685.83790007 271.99023438 648.4375 C272.00798071 633.168426 272.02875307 617.89940195 272.07006836 602.63037109 C272.10015401 591.50612515 272.11936807 580.38192003 272.12601548 569.25763452 C272.12989557 563.3781016 272.13888739 557.49868539 272.16094017 551.61919022 C272.97635141 510.49677964 272.97635141 510.49677964 265.65625 470.23828125 C265.36161865 469.22773682 265.0669873 468.21719238 264.76342773 467.17602539 C261.93398529 457.82800842 258.14811186 448.99234706 253.84375 440.23828125 C253.18375 440.23828125 252.52375 440.23828125 251.84375 440.23828125 C251.658125 439.45453125 251.4725 438.67078125 251.28125 437.86328125 C247.32320622 427.88212738 239.32667598 418.71209318 230.84375 412.23828125 C230.121875 411.47515625 229.4 410.71203125 228.65625 409.92578125 C223.281851 404.79024443 217.19109385 399.97844163 209.84375 398.23828125 C209.84375 397.57828125 209.84375 396.91828125 209.84375 396.23828125 C159.32495203 373.21422731 97.44853691 382.5845597 60.16796875 425.23828125 Z M-208.15625 392.23828125 C-208.15625 501.46828125 -208.15625 610.69828125 -208.15625 723.23828125 C-174.49625 723.23828125 -140.83625 723.23828125 -106.15625 723.23828125 C-106.15625 614.00828125 -106.15625 504.77828125 -106.15625 392.23828125 C-139.81625 392.23828125 -173.47625 392.23828125 -208.15625 392.23828125 Z " fill="#000000" transform="translate(492.15625,-0.23828125)"/>
</svg>
